<svg width="358" height="270" viewBox="0 0 358 270" fill="none" xmlns="http://www.w3.org/2000/svg">
<g clip-path="url(#clip0)">
<path opacity="0.18" d="M309.312 255.209C302.534 258.902 295.361 261.816 287.928 263.895C252.888 273.799 216.732 270.633 182.051 261.598C163.227 256.693 142.637 250.011 123.039 251.041C108.871 251.778 95.2707 257.194 80.7822 257.128C56.9432 257.033 40.1029 244.841 23.6215 227.952C6.76232 210.666 4.63722 177.199 7.96183 153.855C11.5509 128.639 23.3382 104.813 40.8585 87.338C48.7072 79.4936 57.6044 72.9817 66.0104 65.8272C91.3889 44.3164 113.566 16.5774 144.309 5.43448C175.052 -5.70841 209.195 1.92811 239.891 13.5057C263.504 22.3993 287.947 35.1488 299.489 58.6822C306.204 72.3674 307.753 88.302 313.826 102.328C329.061 137.505 358.066 154.923 349.953 197.945C348.452 206.667 345.703 215.127 341.793 223.066C334.558 237.129 322.799 247.828 309.312 255.209Z" fill="#FF3636"/>
<path d="M196.558 194.826L246.238 217.508C247.294 217.989 248.498 218.031 249.585 217.626C250.672 217.22 251.554 216.399 252.038 215.344L264.741 187.492C264.985 186.973 265.121 186.41 265.138 185.838C265.171 184.97 264.946 184.112 264.492 183.372C264.038 182.632 263.376 182.043 262.588 181.679L212.907 158.996C212.386 158.744 211.819 158.599 211.24 158.569C210.662 158.539 210.083 158.625 209.538 158.823C208.994 159.02 208.494 159.324 208.068 159.718C207.643 160.111 207.3 160.586 207.061 161.113L194.348 188.985C194.107 189.508 193.972 190.073 193.949 190.649C193.927 191.224 194.019 191.798 194.219 192.338C194.419 192.878 194.723 193.374 195.115 193.795C195.507 194.217 195.978 194.558 196.501 194.797L196.558 194.826Z" fill="#FF3636"/>
<path d="M196.558 194.826L246.238 217.508C247.294 217.989 248.498 218.031 249.585 217.626C250.672 217.22 251.554 216.399 252.038 215.344L264.741 187.492C264.985 186.973 265.121 186.41 265.138 185.838C265.171 184.97 264.946 184.112 264.492 183.372C264.038 182.632 263.376 182.043 262.588 181.679L212.907 158.996C212.386 158.744 211.819 158.599 211.24 158.569C210.662 158.539 210.083 158.625 209.538 158.823C208.994 159.02 208.494 159.324 208.068 159.718C207.643 160.111 207.3 160.586 207.061 161.113L194.348 188.985C194.107 189.508 193.972 190.073 193.949 190.649C193.927 191.224 194.019 191.798 194.219 192.338C194.419 192.878 194.723 193.374 195.115 193.795C195.507 194.217 195.978 194.558 196.501 194.797L196.558 194.826Z" fill="url(#paint0_linear)"/>
<path d="M194.263 193.786L243.943 216.469C244.998 216.95 246.201 216.994 247.288 216.59C248.375 216.186 249.257 215.368 249.743 214.314L262.446 186.452C262.685 185.935 262.82 185.376 262.843 184.807C262.875 183.939 262.649 183.08 262.193 182.34C261.738 181.599 261.073 181.011 260.283 180.649L210.612 157.966C209.556 157.485 208.353 157.443 207.266 157.849C206.178 158.254 205.296 159.075 204.813 160.13L192.1 187.992C191.62 189.048 191.578 190.251 191.984 191.337C192.389 192.423 193.209 193.304 194.263 193.786Z" fill="#FF3636"/>
<path d="M264.533 183.437L249.318 143.44L209.177 159.044L260.651 190.403L264.533 183.437Z" fill="#FF3636"/>
<path d="M206.881 158.042L222.418 192.066L264.552 183.456L249.336 143.459C249.336 143.459 208.015 157.456 206.881 158.042Z" fill="url(#paint1_linear)"/>
<path d="M236.897 189.448L240.959 215.108L194.272 193.786L216.846 179.874L222.399 192.047L236.897 189.448Z" fill="url(#paint2_linear)"/>
<path d="M231.419 45.6111H140.351C132.391 45.6111 125.938 52.0682 125.938 60.0335V68.6057C125.938 76.571 132.391 83.0281 140.351 83.0281H231.419C239.379 83.0281 245.832 76.571 245.832 68.6057V60.0335C245.832 52.0682 239.379 45.6111 231.419 45.6111Z" fill="white"/>
<path d="M251.66 87.4041H160.592C152.632 87.4041 146.179 93.8612 146.179 101.826V110.399C146.179 118.364 152.632 124.821 160.592 124.821H251.66C259.62 124.821 266.073 118.364 266.073 110.399V101.826C266.073 93.8612 259.62 87.4041 251.66 87.4041Z" fill="white"/>
<path d="M225.195 130.189H134.127C126.167 130.189 119.714 136.647 119.714 144.612V153.184C119.714 161.149 126.167 167.606 134.127 167.606H225.195C233.155 167.606 239.608 161.149 239.608 153.184V144.612C239.608 136.647 233.155 130.189 225.195 130.189Z" fill="white"/>
<path opacity="0.18" d="M154.67 149.158C154.67 151.962 153.839 154.703 152.282 157.034C150.726 159.365 148.513 161.182 145.924 162.255C143.335 163.328 140.487 163.609 137.739 163.062C134.99 162.515 132.466 161.165 130.485 159.182C128.503 157.2 127.154 154.674 126.607 151.924C126.061 149.174 126.341 146.323 127.414 143.733C128.486 141.142 130.302 138.928 132.631 137.37C134.961 135.813 137.7 134.981 140.502 134.981C142.353 134.971 144.187 135.326 145.901 136.026C147.614 136.725 149.174 137.755 150.489 139.058C151.805 140.36 152.851 141.909 153.568 143.616C154.286 145.323 154.66 147.155 154.67 149.007V149.158Z" fill="#FF3636"/>
<path opacity="0.34" d="M140.115 152.144C142.431 152.144 144.309 150.266 144.309 147.948C144.309 145.63 142.431 143.752 140.115 143.752C137.799 143.752 135.922 145.63 135.922 147.948C135.922 150.266 137.799 152.144 140.115 152.144Z" fill="#FF3636"/>
<path opacity="0.34" d="M149.248 160.31C146.646 162.354 143.41 163.422 140.103 163.329C136.796 163.235 133.626 161.987 131.143 159.8C131.776 157.862 133.018 156.181 134.683 155.008C136.349 153.834 138.35 153.232 140.386 153.289C142.422 153.346 144.386 154.061 145.983 155.326C147.58 156.592 148.726 158.34 149.248 160.31Z" fill="#FF3636"/>
<path opacity="0.18" d="M228.425 138.091H168.686V141.748H228.425V138.091Z" fill="#FF3636"/>
<path opacity="0.18" d="M228.425 144.583H168.686V148.241H228.425V144.583Z" fill="#FF3636"/>
<path opacity="0.18" d="M228.425 151.076H168.686V154.734H228.425V151.076Z" fill="#FF3636"/>
<path opacity="0.18" d="M228.425 157.569H168.686V161.227H228.425V157.569Z" fill="#FF3636"/>
<path opacity="0.18" d="M149.088 244.86C203.755 244.86 248.071 239.456 248.071 232.791C248.071 226.125 203.755 220.722 149.088 220.722C94.4212 220.722 50.1051 226.125 50.1051 232.791C50.1051 239.456 94.4212 244.86 149.088 244.86Z" fill="#FF3636"/>
<path d="M86.7231 228.925C85.8825 229.568 85.1458 230.674 85.5897 231.647C86.0336 232.621 87.2331 232.753 88.2532 232.781C92.111 232.882 95.9677 232.539 99.7476 231.761C99.8601 231.751 99.9662 231.704 100.05 231.628C100.126 231.532 100.163 231.41 100.154 231.288C100.434 228.936 100.554 226.568 100.513 224.2C98.4348 223.614 96.0263 224.323 94.1657 225.277C91.7761 226.459 88.8482 227.281 86.7231 228.925Z" fill="#FF3636"/>
<path d="M125.995 227.498C126.836 228.15 127.582 229.256 127.138 230.22C126.694 231.184 125.485 231.336 124.465 231.354C120.606 231.45 116.749 231.098 112.971 230.305C112.858 230.295 112.752 230.249 112.668 230.173C112.6 230.073 112.567 229.954 112.574 229.833C112.284 227.482 112.164 225.113 112.215 222.744C114.293 222.149 116.701 222.867 118.562 223.822C120.951 225.041 123.87 225.863 125.995 227.498Z" fill="#FF3636"/>
<path d="M94.7891 160.726V224.852C94.7891 224.852 98.3592 226.128 100.532 224.852L107.275 170.829L111.998 223.964C111.998 223.964 115.776 224.852 118.609 223.576L121.443 160.254C121.443 160.254 104.706 156.483 94.7891 160.726Z" fill="#473F47"/>
<path d="M143.43 125.908C141.626 133.157 141.655 136.701 138.906 143.648C138.17 145.538 137.017 147.617 135.034 147.854C133.523 148.033 132.134 147.022 130.935 146.077C127.642 143.449 124.339 140.822 121.027 138.195C120.693 146.037 120.946 153.894 121.783 161.7C117.211 164.11 112.394 166.576 107.228 166.425C103.981 166.195 100.811 165.331 97.8964 163.883C97.188 163.58 96.4985 163.268 95.8091 162.938C95.5577 162.853 95.3373 162.695 95.1763 162.484C94.2318 161.01 94.6757 157.305 94.6001 155.556C94.4868 152.891 94.3545 150.216 94.2223 147.542C94.1656 146.597 94.1184 145.718 94.0523 144.801C93.8162 140.463 93.5423 136.144 93.1078 131.806C93.1834 132.552 92.4372 133.894 92.1633 134.641C91.8139 135.813 91.4644 137.004 91.1055 138.185C90.7205 139.26 90.405 140.359 90.161 141.474C89.9532 142.826 90.6049 144.12 90.5199 145.51C90.5141 146.09 90.3747 146.662 90.1127 147.179C89.8506 147.697 89.4729 148.148 89.0087 148.496C87.5448 149.441 85.6274 148.855 84.0312 148.175C83.1388 147.911 82.3628 147.351 81.8306 146.587C81.4827 145.721 81.4329 144.763 81.6889 143.865C82.4281 138.837 83.7368 133.91 85.5897 129.178C87.1858 125.039 88.7537 120.521 93.1456 118.669C95.4218 117.723 98.1325 117.657 100.569 117.61L109.145 117.44C111.866 117.248 114.6 117.461 117.258 118.073C120.744 119.018 122.925 121.627 124.899 124.509C127.355 128.126 129.66 131.85 131.813 135.681C133.343 130.586 133.183 129.273 135.034 124.292C137.883 124.521 140.699 125.063 143.43 125.908Z" fill="#FF3636"/>
<path d="M106.86 146.171C106.386 146.795 105.772 147.298 105.068 147.641C104.365 147.984 103.59 148.157 102.808 148.147C101.544 148.193 100.283 148.303 99.0298 148.477C98.6847 148.514 98.3571 148.649 98.0853 148.865C97.8899 149.106 97.7569 149.392 97.6981 149.697C96.5175 154.11 97.5942 158.77 97.972 163.316C98.0099 163.503 97.9901 163.697 97.9153 163.873C97.2069 163.571 96.5175 163.259 95.828 162.928C95.5766 162.843 95.3563 162.685 95.1952 162.475C94.2507 161 94.6946 157.295 94.619 155.547C94.5057 152.882 94.3735 150.207 94.2412 147.532C94.1846 146.587 94.1373 145.708 94.0712 144.791C94.2885 144.735 94.5151 144.697 94.7324 144.659L100.824 143.62C102.326 143.355 104.602 142.466 106.104 143.034C107.606 143.601 107.559 145.047 106.86 146.171Z" fill="url(#paint3_linear)"/>
<path d="M100.314 117.581C101.75 116.315 103.072 113.981 102.808 111.996C102.543 110.011 101.098 107.922 100.258 106.042C99.8326 105.097 99.4076 103.934 99.9177 103.008C100.223 102.594 100.568 102.211 100.947 101.864C101.816 100.919 102.052 99.5393 102.628 98.3768C103.091 97.473 103.773 96.6995 104.611 96.1266C105.449 95.5538 106.417 95.1999 107.426 95.0972C108.439 95.0235 109.452 95.2232 110.361 95.6754C111.27 96.1276 112.041 96.8158 112.593 97.668C113.102 98.5796 113.444 99.575 113.603 100.607C114.138 103.357 114.174 106.181 113.707 108.943C113.575 109.901 113.254 110.823 112.763 111.656C112.517 112.069 112.176 112.417 111.769 112.672C111.361 112.926 110.899 113.08 110.42 113.121C109.92 113.121 109.344 113.007 108.994 113.357C108.835 113.529 108.736 113.748 108.711 113.981C108.58 114.654 108.662 115.351 108.947 115.975C109.28 116.763 109.521 117.588 109.665 118.432C109.854 119.33 109.976 120.407 109.287 121.003C108.855 121.307 108.331 121.454 107.804 121.419C106.343 121.411 104.903 121.059 103.603 120.393C102.302 119.726 101.175 118.763 100.314 117.581Z" fill="#FCBDBA"/>
<path d="M109.74 133.497L116.201 112.695L86.3358 120.114L102.685 142.892L109.74 133.497Z" fill="url(#paint4_linear)"/>
<path d="M115.691 92.9991C115.513 92.3533 115.168 91.7662 114.689 91.2979C114.021 90.6253 113.186 90.1423 112.27 89.8982C111.354 89.6542 110.39 89.6577 109.476 89.9086C108.607 90.1543 107.804 90.6269 106.945 90.9198C105.435 91.2598 103.9 91.4685 102.354 91.5436C100.824 91.761 99.1903 92.3848 98.4725 93.7552C98.1071 94.7096 97.8843 95.7128 97.8114 96.7323C97.3014 99.3314 95.4407 101.912 96.3947 104.388C97.3486 106.864 100.966 108.764 102.449 110.843C102.827 109.954 102.373 108.178 101.986 107.289C101.661 107.305 101.341 107.215 101.071 107.032C100.802 106.85 100.6 106.585 100.494 106.278C100.206 105.808 100.046 105.27 100.031 104.719C99.997 104.444 100.029 104.165 100.124 103.906C100.219 103.646 100.375 103.413 100.579 103.225C100.839 103.106 101.134 103.085 101.408 103.166C101.683 103.248 101.918 103.427 102.071 103.669C102.361 104.17 102.517 104.736 102.524 105.314C104.413 103.509 102.345 99.8512 104.045 97.857C105.347 98.3307 106.682 98.7066 108.04 98.9817C109.477 99.1079 110.924 98.9209 112.281 98.4335C114.198 97.6963 116.201 95.1351 115.691 92.9991Z" fill="#FC682D"/>
<path d="M85.5519 141.03C84.6612 141.399 83.8922 142.012 83.3323 142.797C83.0085 143.346 82.8322 143.97 82.8206 144.608C82.809 145.245 82.9625 145.875 83.2662 146.436C83.5814 146.988 84.0049 147.472 84.5112 147.857C85.0176 148.242 85.5965 148.52 86.213 148.676C87.9887 149.148 89.8682 148.676 91.6533 148.222L98.0286 146.578C98.1997 146.551 98.3582 146.472 98.482 146.351C98.5376 146.241 98.5666 146.119 98.5666 145.996C98.5666 145.873 98.5376 145.752 98.482 145.642C98.0759 144.092 97.8114 142.41 97.2542 140.916C96.7536 139.593 96.1585 139.603 94.7607 139.565C91.7005 139.508 88.3665 139.65 85.5519 141.03Z" fill="#FF3636"/>
<path d="M138.434 126.692C138.704 126.71 138.974 126.647 139.209 126.513C139.378 126.386 139.514 126.221 139.605 126.031C140.03 125.295 140.258 124.461 140.266 123.611C140.236 123.198 140.277 122.782 140.389 122.383C140.518 122.122 140.673 121.875 140.852 121.646C141.502 120.404 141.731 118.984 141.504 117.6C141.503 117.072 141.4 116.549 141.201 116.06C141.011 115.692 140.743 115.369 140.418 115.113C140.092 114.857 139.715 114.674 139.312 114.576C138.506 114.379 137.676 114.3 136.847 114.34C136.312 114.292 135.774 114.377 135.279 114.586C134.562 114.945 134.184 116.561 134.042 117.307C133.82 118.537 134.058 119.806 134.713 120.871C134.928 121.166 135.111 121.482 135.261 121.816C135.657 122.893 134.722 124.434 135.412 125.369C135.803 125.779 136.271 126.108 136.79 126.335C137.309 126.562 137.868 126.684 138.434 126.692Z" fill="#FCBDBA"/>
<path d="M150.949 99.615V122.128C150.196 121.276 149.364 120.498 148.465 119.803C144.666 116.778 140.007 115.037 135.157 114.831C134.3 114.817 133.464 114.561 132.746 114.092C132.027 113.624 131.455 112.963 131.095 112.185C130.746 111.396 130.612 110.529 130.708 109.671C130.88 108.589 131.442 107.607 132.288 106.911C133.133 106.214 134.204 105.852 135.298 105.891C137.848 105.787 142.854 104.841 150.949 99.615Z" fill="#FF3636"/>
<path d="M151.978 122.08C155.181 122.08 157.777 117.049 157.777 110.843C157.777 104.637 155.181 99.6055 151.978 99.6055C148.775 99.6055 146.179 104.637 146.179 110.843C146.179 117.049 148.775 122.08 151.978 122.08Z" fill="#FF3636"/>
<path d="M151.978 122.08C155.181 122.08 157.777 117.049 157.777 110.843C157.777 104.637 155.181 99.6055 151.978 99.6055C148.775 99.6055 146.179 104.637 146.179 110.843C146.179 117.049 148.775 122.08 151.978 122.08Z" fill="url(#paint5_linear)"/>
<path d="M146.717 106.108L151.978 107.752V113.423L146.67 115.37C146.049 112.312 146.065 109.159 146.717 106.108Z" fill="url(#paint6_linear)"/>
<path d="M136.573 120.237H139.851V123.12C139.851 123.556 139.678 123.974 139.369 124.283C139.061 124.591 138.643 124.764 138.207 124.764C137.772 124.764 137.354 124.591 137.045 124.283C136.737 123.974 136.564 123.556 136.564 123.12V120.237H136.573Z" fill="#FF3636"/>
<path d="M151.978 113.423C152.714 113.423 153.31 112.154 153.31 110.588C153.31 109.022 152.714 107.752 151.978 107.752C151.243 107.752 150.646 109.022 150.646 110.588C150.646 112.154 151.243 113.423 151.978 113.423Z" fill="#FF3636"/>
<path d="M148.465 119.755C144.666 116.731 140.007 114.99 135.157 114.784C134.3 114.769 133.464 114.513 132.746 114.045C132.027 113.577 131.455 112.916 131.095 112.138C131.218 112.27 132.625 113.612 136.583 112.941C140.739 112.232 146.481 114.34 146.481 114.34L148.465 119.755Z" fill="url(#paint7_linear)"/>
<path d="M106.246 144.234H102.26C102.114 144.24 101.967 144.217 101.83 144.167C101.692 144.117 101.566 144.04 101.458 143.941C101.35 143.842 101.263 143.722 101.201 143.589C101.139 143.456 101.104 143.312 101.098 143.166C101.075 143.041 101.075 142.913 101.098 142.788L102.987 134.442C103.084 134.041 103.309 133.683 103.627 133.422C103.946 133.161 104.342 133.012 104.753 132.996H108.73C108.877 132.991 109.025 133.015 109.163 133.067C109.301 133.119 109.428 133.198 109.536 133.299C109.644 133.4 109.731 133.521 109.792 133.656C109.853 133.79 109.887 133.935 109.891 134.083C109.911 134.202 109.911 134.323 109.891 134.442L108.002 142.788C107.906 143.187 107.683 143.544 107.366 143.805C107.049 144.066 106.656 144.216 106.246 144.234Z" fill="#473F47"/>
<path d="M100.9 138.194C101.022 137.997 101.161 137.81 101.315 137.637C101.527 137.42 101.815 137.294 102.118 137.287C102.15 137.284 102.183 137.288 102.214 137.298C102.244 137.307 102.273 137.323 102.298 137.344C102.325 137.387 102.344 137.435 102.354 137.486C102.402 137.76 102.421 138.034 102.487 138.298C102.54 138.571 102.679 138.819 102.883 139.007C103.308 139.357 104.13 139.13 104.621 139.073L106.699 138.837C106.91 138.781 107.13 138.773 107.345 138.814C107.559 138.855 107.761 138.944 107.936 139.073C108.342 139.47 108.163 140.141 107.936 140.671C107.304 142.239 106.472 143.95 104.886 144.546C102.997 145.264 100.881 144.101 98.8881 144.413C97.7736 144.583 96.5363 145.009 95.8752 143.771C95.6819 143.434 95.5898 143.05 95.6099 142.662C95.63 142.275 95.7615 141.902 95.9885 141.587C96.6004 141.047 97.3086 140.627 98.0758 140.349C98.7194 140.01 99.3297 139.612 99.8987 139.158C100.199 138.926 100.48 138.67 100.739 138.393L100.9 138.194Z" fill="#FCBDBA"/>
<path opacity="0.18" d="M178.972 106.108C178.952 109.841 177.453 113.414 174.804 116.043C172.156 118.672 168.573 120.143 164.842 120.133C161.111 120.123 157.537 118.633 154.902 115.99C152.268 113.346 150.788 109.766 150.788 106.032C150.788 102.299 152.268 98.718 154.902 96.0746C157.537 93.4313 161.111 91.9412 164.842 91.9312C168.573 91.9212 172.156 93.3921 174.804 96.0213C177.453 98.6505 178.952 102.223 178.972 105.957V106.108Z" fill="#FF3636"/>
<path opacity="0.34" d="M164.436 109.095C166.752 109.095 168.629 107.216 168.629 104.898C168.629 102.581 166.752 100.702 164.436 100.702C162.12 100.702 160.242 102.581 160.242 104.898C160.242 107.216 162.12 109.095 164.436 109.095Z" fill="#FF3636"/>
<path opacity="0.34" d="M173.569 117.26C170.967 119.304 167.731 120.372 164.424 120.279C161.117 120.185 157.947 118.937 155.463 116.75C156.096 114.812 157.338 113.131 159.004 111.958C160.67 110.784 162.67 110.181 164.707 110.239C166.743 110.296 168.706 111.011 170.304 112.276C171.901 113.542 173.046 115.29 173.569 117.26Z" fill="#FF3636"/>
<path opacity="0.18" d="M252.746 95.0405H193.007V98.6981H252.746V95.0405Z" fill="#FF3636"/>
<path opacity="0.18" d="M252.746 101.533H193.007V105.191H252.746V101.533Z" fill="#FF3636"/>
<path opacity="0.18" d="M252.746 108.026H193.007V111.684H252.746V108.026Z" fill="#FF3636"/>
<path opacity="0.18" d="M252.746 114.52H193.007V118.177H252.746V114.52Z" fill="#FF3636"/>
<path opacity="0.18" d="M160.233 64.3149C160.233 67.1188 159.402 69.8597 157.845 72.191C156.289 74.5224 154.076 76.3394 151.487 77.4124C148.898 78.4854 146.05 78.7662 143.302 78.2192C140.553 77.6722 138.029 76.322 136.048 74.3393C134.066 72.3567 132.717 69.8306 132.17 67.0806C131.624 64.3306 131.904 61.4802 132.977 58.8897C134.049 56.2992 135.865 54.0851 138.195 52.5274C140.524 50.9696 143.264 50.1382 146.066 50.1382C149.823 50.1382 153.427 51.6318 156.083 54.2904C158.74 56.9491 160.233 60.555 160.233 64.3149Z" fill="#FF3636"/>
<path opacity="0.34" d="M145.669 67.3111C147.985 67.3111 149.862 65.4323 149.862 63.1148C149.862 60.7972 147.985 58.9185 145.669 58.9185C143.353 58.9185 141.475 60.7972 141.475 63.1148C141.475 65.4323 143.353 67.3111 145.669 67.3111Z" fill="#FF3636"/>
<path opacity="0.34" d="M154.812 75.4767C152.207 77.5216 148.969 78.5893 145.66 78.4943C142.351 78.3994 139.179 77.1478 136.696 74.9569C137.327 73.0156 138.57 71.3311 140.238 70.1553C141.906 68.9796 143.909 68.3758 145.948 68.4343C147.987 68.4928 149.953 69.2105 151.551 70.48C153.148 71.7494 154.292 73.5024 154.812 75.4767Z" fill="#FF3636"/>
<path opacity="0.18" d="M233.988 53.2571H174.249V56.9147H233.988V53.2571Z" fill="#FF3636"/>
<path opacity="0.18" d="M233.988 59.75H174.249V63.4076H233.988V59.75Z" fill="#FF3636"/>
<path opacity="0.18" d="M233.988 66.2336H174.249V69.8912H233.988V66.2336Z" fill="#FF3636"/>
<path opacity="0.18" d="M233.988 72.7266H174.249V76.3842H233.988V72.7266Z" fill="#FF3636"/>
<path d="M239.429 51.5559C242.433 51.5559 244.869 49.1186 244.869 46.1121C244.869 43.1055 242.433 40.6682 239.429 40.6682C236.424 40.6682 233.988 43.1055 233.988 46.1121C233.988 49.1186 236.424 51.5559 239.429 51.5559Z" fill="#FF3636"/>
<path d="M57.9349 123.177L44.0698 102.384C43.9149 102.166 43.8048 101.919 43.7461 101.657C43.6874 101.396 43.6812 101.125 43.7277 100.862C43.7743 100.598 43.8728 100.346 44.0174 100.121C44.1621 99.8952 44.35 99.7008 44.5704 99.5487L56.2821 91.7893C56.4999 91.6456 56.7438 91.5461 56.9999 91.4964C57.3901 91.4187 57.7944 91.458 58.1624 91.6093C58.5303 91.7606 58.8455 92.0172 59.0683 92.347L72.9335 113.139C73.0954 113.386 73.2012 113.666 73.2437 113.958C73.2861 114.25 73.264 114.548 73.179 114.831C73.0475 115.277 72.7632 115.662 72.3762 115.918L60.7117 123.734C60.2727 124.028 59.7355 124.136 59.2173 124.035C58.699 123.934 58.2415 123.632 57.9444 123.195L57.9349 123.177Z" fill="#FF3636"/>
<path d="M57.9349 123.177L44.0698 102.384C43.9149 102.166 43.8048 101.919 43.7461 101.657C43.6874 101.396 43.6812 101.125 43.7277 100.862C43.7743 100.598 43.8728 100.346 44.0174 100.121C44.1621 99.8952 44.35 99.7008 44.5704 99.5487L56.2821 91.7893C56.4999 91.6456 56.7438 91.5461 56.9999 91.4964C57.3901 91.4187 57.7944 91.458 58.1624 91.6093C58.5303 91.7606 58.8455 92.0172 59.0683 92.347L72.9335 113.139C73.0954 113.386 73.2012 113.666 73.2437 113.958C73.2861 114.25 73.264 114.548 73.179 114.831C73.0475 115.277 72.7632 115.662 72.3762 115.918L60.7117 123.734C60.2727 124.028 59.7355 124.136 59.2173 124.035C58.699 123.934 58.2415 123.632 57.9444 123.195L57.9349 123.177Z" fill="url(#paint8_linear)"/>
<path d="M58.5678 124.141L44.7026 103.348C44.4077 102.904 44.3008 102.361 44.4052 101.839C44.5097 101.316 44.817 100.856 45.2599 100.56L56.9243 92.829C57.1421 92.6853 57.386 92.5857 57.6422 92.536C58.0309 92.4591 58.4337 92.4988 58.8 92.6501C59.1664 92.8015 59.4798 93.0577 59.7012 93.3866L73.5663 114.179C73.8616 114.62 73.9698 115.161 73.8671 115.682C73.7644 116.203 73.4592 116.662 73.0185 116.958L61.3446 124.736C61.1234 124.88 60.8759 124.979 60.6164 125.027C60.3569 125.075 60.0905 125.071 59.8324 125.016C59.5744 124.961 59.3298 124.855 59.1127 124.705C58.8957 124.554 58.7105 124.363 58.5678 124.141Z" fill="#FF3636"/>
<path d="M73.8213 115.833L57.3116 111.287L57.6422 92.4603C58.0309 92.3834 58.4337 92.4231 58.8 92.5745C59.1663 92.7258 59.4798 92.982 59.7011 93.3109L73.5663 114.103C73.7393 114.353 73.8523 114.638 73.8965 114.938C73.9408 115.238 73.915 115.545 73.8213 115.833Z" fill="url(#paint9_linear)"/>
<path d="M57.4249 104.539L45.5432 104.567L58.5678 124.141L63.2241 112.913L57.321 111.287L57.4249 104.539Z" fill="url(#paint10_linear)"/>
</g>
<defs>
<linearGradient id="paint0_linear" x1="222.333" y1="183.428" x2="324.2" y2="251.301" gradientUnits="userSpaceOnUse">
<stop offset="0.01"/>
<stop offset="0.08" stop-opacity="0.69"/>
<stop offset="0.21" stop-opacity="0.32"/>
<stop offset="1" stop-opacity="0"/>
</linearGradient>
<linearGradient id="paint1_linear" x1="14289.5" y1="-4540.71" x2="18073.4" y2="-14007.3" gradientUnits="userSpaceOnUse">
<stop offset="0.01"/>
<stop offset="0.08" stop-opacity="0.69"/>
<stop offset="0.21" stop-opacity="0.32"/>
<stop offset="1" stop-opacity="0"/>
</linearGradient>
<linearGradient id="paint2_linear" x1="34352.1" y1="4700.85" x2="28996.3" y2="11444.1" gradientUnits="userSpaceOnUse">
<stop offset="0.01"/>
<stop offset="0.08" stop-opacity="0.69"/>
<stop offset="0.21" stop-opacity="0.32"/>
<stop offset="1" stop-opacity="0"/>
</linearGradient>
<linearGradient id="paint3_linear" x1="1324.52" y1="-3416.16" x2="2189.58" y2="-3093.91" gradientUnits="userSpaceOnUse">
<stop offset="0.01"/>
<stop offset="0.08" stop-opacity="0.69"/>
<stop offset="0.21" stop-opacity="0.32"/>
<stop offset="1" stop-opacity="0"/>
</linearGradient>
<linearGradient id="paint4_linear" x1="107.313" y1="146.691" x2="101.667" y2="118.49" gradientUnits="userSpaceOnUse">
<stop offset="0.01" stop-color="white"/>
<stop offset="1" stop-color="white" stop-opacity="0"/>
</linearGradient>
<linearGradient id="paint5_linear" x1="1873.39" y1="-4476.27" x2="2832.77" y2="-4238.33" gradientUnits="userSpaceOnUse">
<stop offset="0.01"/>
<stop offset="0.08" stop-opacity="0.69"/>
<stop offset="0.21" stop-opacity="0.32"/>
<stop offset="1" stop-opacity="0"/>
</linearGradient>
<linearGradient id="paint6_linear" x1="987.095" y1="-1742.65" x2="1390.96" y2="-1653.87" gradientUnits="userSpaceOnUse">
<stop offset="0.01"/>
<stop offset="0.08" stop-opacity="0.69"/>
<stop offset="0.21" stop-opacity="0.32"/>
<stop offset="1" stop-opacity="0"/>
</linearGradient>
<linearGradient id="paint7_linear" x1="2922.85" y1="-1210.16" x2="2920.98" y2="-1456.88" gradientUnits="userSpaceOnUse">
<stop offset="0.01"/>
<stop offset="0.08" stop-opacity="0.69"/>
<stop offset="0.21" stop-opacity="0.32"/>
<stop offset="1" stop-opacity="0"/>
</linearGradient>
<linearGradient id="paint8_linear" x1="46542.4" y1="15752.3" x2="45369.9" y2="14372.9" gradientUnits="userSpaceOnUse">
<stop offset="0.01"/>
<stop offset="0.08" stop-opacity="0.69"/>
<stop offset="0.21" stop-opacity="0.32"/>
<stop offset="1" stop-opacity="0"/>
</linearGradient>
<linearGradient id="paint9_linear" x1="26065.3" y1="5466.57" x2="25033.4" y2="5864.11" gradientUnits="userSpaceOnUse">
<stop offset="0.01" stop-color="white"/>
<stop offset="1" stop-color="white" stop-opacity="0"/>
</linearGradient>
<linearGradient id="paint10_linear" x1="22244.5" y1="7123.77" x2="21216.8" y2="8745.41" gradientUnits="userSpaceOnUse">
<stop offset="0.01"/>
<stop offset="0.08" stop-opacity="0.69"/>
<stop offset="0.21" stop-opacity="0.32"/>
<stop offset="1" stop-opacity="0"/>
</linearGradient>
<clipPath id="clip0">
<rect width="358" height="270" fill="white"/>
</clipPath>
</defs>
</svg>
