<svg width="406" height="306" viewBox="0 0 406 306" fill="none" xmlns="http://www.w3.org/2000/svg">
<g clip-path="url(#clip0)">
<path opacity="0.18" d="M202.752 1.14368C161.457 6.61409 122.459 31.555 102.522 68.3516C96.8035 78.9398 92.5053 90.2714 86.3201 100.621C79.382 112.058 70.1185 122.026 62.8183 133.244C40.6793 166.981 38.7351 211.974 54.8223 248.561C66.9449 276.151 90.0846 292.219 120.305 292.334C135.182 292.381 149.115 287.14 163.706 286.425C183.844 285.472 204.992 291.905 224.338 296.651C245.953 301.95 268.006 307.134 290.231 305.771C312.456 304.408 335.243 295.602 348.5 277.724C361.623 260.035 363.558 236.257 360.479 214.452C357.401 192.646 349.824 171.727 345.774 150.103C341.104 125.086 341.009 98.9916 332.146 75.1467C318.555 38.5979 284.418 11.4269 246.43 2.91632C232.089 -0.247801 217.302 -0.847942 202.752 1.14368Z" fill="#FF3636"/>
<path d="M266.272 50.3964V244.958C266.269 249.462 264.48 253.782 261.295 256.968C258.111 260.154 253.793 261.946 249.289 261.951H165.069C160.563 261.951 156.24 260.161 153.054 256.974C149.867 253.787 148.077 249.465 148.077 244.958V50.3964C148.075 48.1649 148.514 45.955 149.366 43.8929C150.219 41.8308 151.47 39.9568 153.047 38.378C154.624 36.7992 156.497 35.5465 158.558 34.6914C160.619 33.8363 162.828 33.3955 165.06 33.3943H249.289C251.52 33.3955 253.73 33.8363 255.791 34.6914C257.852 35.5465 259.725 36.7992 261.302 38.378C262.879 39.9568 264.129 41.8308 264.982 43.8929C265.835 45.955 266.273 48.1649 266.272 50.3964Z" fill="#FF3636"/>
<path d="M247.507 36.282H166.832C157.758 36.282 150.402 43.6381 150.402 52.7123V242.28C150.402 251.354 157.758 258.71 166.832 258.71H247.507C256.581 258.71 263.937 251.354 263.937 242.28V52.7123C263.937 43.6381 256.581 36.282 247.507 36.282Z" fill="#473F47"/>
<path d="M260.849 54.5802V238.144C260.806 242.305 259.113 246.279 256.141 249.192C253.169 252.106 249.162 253.719 245 253.678H169.415C166.654 253.686 163.938 252.977 161.534 251.62C159.123 250.289 157.111 248.338 155.707 245.968C154.303 243.599 153.557 240.898 153.547 238.144V54.5802C153.592 50.4163 155.289 46.4408 158.265 43.5278C161.241 40.6147 165.251 39.0026 169.415 39.0458H182.186V41.3045C182.217 42.7866 182.686 44.2264 183.534 45.4424C184.382 46.6584 185.571 47.5962 186.951 48.1377C187.862 48.4965 188.831 48.6839 189.81 48.6905H224.92C226.922 48.6907 228.844 47.9031 230.271 46.498C231.698 45.0928 232.514 43.1828 232.544 41.1806V39.0458H244.934C249.026 39.0228 252.971 40.5677 255.96 43.363C257.502 44.7966 258.732 46.5325 259.573 48.4625C260.414 50.3924 260.848 52.4749 260.849 54.5802Z" fill="#FF3636"/>
<path opacity="0.1" d="M260.849 141.678V195.277H214.455C213.819 195.278 213.189 195.153 212.601 194.911C212.013 194.668 211.479 194.311 211.029 193.861C210.579 193.412 210.223 192.877 209.98 192.289C209.737 191.701 209.613 191.071 209.614 190.435V146.529C209.612 145.893 209.735 145.262 209.976 144.674C210.218 144.086 210.574 143.551 211.023 143.1C211.471 142.649 212.005 142.292 212.592 142.048C213.18 141.804 213.81 141.678 214.446 141.678H260.849Z" fill="#020202"/>
<path d="M127.872 187.271H162.439C162.736 187.271 163.029 187.33 163.303 187.443C163.577 187.557 163.826 187.723 164.036 187.933C164.246 188.142 164.412 188.391 164.526 188.665C164.639 188.939 164.698 189.233 164.698 189.53C164.698 190.129 164.46 190.703 164.036 191.127C163.612 191.551 163.038 191.789 162.439 191.789H127.872C127.273 191.789 126.699 191.551 126.275 191.127C125.852 190.703 125.614 190.129 125.614 189.53C125.614 189.233 125.672 188.939 125.786 188.665C125.899 188.391 126.066 188.142 126.275 187.933C126.485 187.723 126.734 187.557 127.008 187.443C127.282 187.33 127.576 187.271 127.872 187.271Z" fill="#473F47"/>
<path d="M133.467 175.187L132.428 181.972L135.287 182.306L138.394 175.12L133.467 175.187Z" fill="#FCBDBA"/>
<path d="M136.135 181.305C136.003 181.189 135.885 181.058 135.783 180.914C135.641 181 135.483 181.055 135.319 181.077C135.155 181.098 134.988 181.085 134.83 181.038L133.409 180.79C133.156 180.763 132.908 180.696 132.676 180.59C132.66 180.581 132.642 180.576 132.623 180.576C132.605 180.576 132.587 180.581 132.571 180.59L132.256 181.181C131.74 182.226 131.439 183.363 131.37 184.526C134.076 185.163 136.855 185.433 139.633 185.327C139.856 185.355 140.082 185.324 140.29 185.237C140.497 185.15 140.678 185.01 140.815 184.831C140.867 184.711 140.894 184.581 140.894 184.45C140.894 184.319 140.867 184.189 140.815 184.069C140.685 183.792 140.501 183.545 140.274 183.342C140.046 183.139 139.779 182.984 139.49 182.887C138.756 182.573 138.003 182.325 137.279 181.934C136.868 181.784 136.482 181.572 136.135 181.305Z" fill="#FF3636"/>
<path d="M152.585 177.255L151.689 184.059L154.548 184.336L157.512 177.083L152.585 177.255Z" fill="#FCBDBA"/>
<path opacity="0.1" d="M249.756 82.2849V103.318C249.756 106.084 248.657 108.735 246.702 110.691C244.747 112.646 242.095 113.745 239.33 113.745H178.288L153.509 142.202V71.8683H239.282C240.651 71.8595 242.008 72.1205 243.276 72.6365C244.543 73.1525 245.697 73.9133 246.671 74.8754C247.644 75.8374 248.419 76.982 248.95 78.2436C249.481 79.5051 249.758 80.859 249.765 82.2277L249.756 82.2849Z" fill="#020202"/>
<path d="M236.823 62.9098H167.776C162.023 62.9098 157.359 67.5735 157.359 73.3264V94.379C157.359 100.132 162.023 104.796 167.776 104.796H236.823C242.576 104.796 247.24 100.132 247.24 94.379V73.3264C247.24 67.5735 242.576 62.9098 236.823 62.9098Z" fill="white"/>
<path opacity="0.1" d="M169.472 99.592C169.121 99.6201 168.768 99.5645 168.443 99.43C168.189 99.247 167.974 99.0155 167.811 98.7489C167.647 98.4822 167.538 98.1857 167.49 97.8766C165.784 92.6254 162.267 87.498 157.007 85.9255C155.634 91.5294 155.739 97.3619 155.844 103.147C155.844 104.691 156.015 106.454 157.245 107.369C158.055 107.864 158.994 108.106 159.942 108.065C165.92 108.282 171.858 107.008 177.22 104.357C178.841 103.557 182.157 100.421 179.069 99.4014C178.116 99.0869 176.067 99.5634 175.076 99.573L169.472 99.592Z" fill="#020202"/>
<path d="M245.582 70.2766C249.729 70.2766 253.091 66.9143 253.091 62.7667C253.091 58.6191 249.729 55.2568 245.582 55.2568C241.434 55.2568 238.072 58.6191 238.072 62.7667C238.072 66.9143 241.434 70.2766 245.582 70.2766Z" fill="#FF3636"/>
<path opacity="0.28" d="M245.582 70.2766C249.729 70.2766 253.091 66.9143 253.091 62.7667C253.091 58.6191 249.729 55.2568 245.582 55.2568C241.434 55.2568 238.072 58.6191 238.072 62.7667C238.072 66.9143 241.434 70.2766 245.582 70.2766Z" fill="#020202"/>
<path d="M177.173 76.2903H225.978C226.526 76.2903 227.052 76.5082 227.44 76.896C227.828 77.2838 228.046 77.8099 228.046 78.3584C228.046 78.9069 227.828 79.4329 227.44 79.8207C227.052 80.2086 226.526 80.4264 225.978 80.4264H177.173C176.624 80.4264 176.098 80.2086 175.71 79.8207C175.323 79.4329 175.105 78.9069 175.105 78.3584C175.105 77.8099 175.323 77.2838 175.71 76.896C176.098 76.5082 176.624 76.2903 177.173 76.2903Z" fill="#FF3636"/>
<path d="M225.978 87.3169H177.173C176.031 87.3169 175.105 88.2428 175.105 89.385C175.105 90.5271 176.031 91.4531 177.173 91.4531H225.978C227.12 91.4531 228.046 90.5271 228.046 89.385C228.046 88.2428 227.12 87.3169 225.978 87.3169Z" fill="#FF3636"/>
<path d="M133.219 127.888L137.46 151.504L133.219 176.912L140.1 177.436L150.126 148.826L146.723 126.153L133.219 127.888Z" fill="#473F47"/>
<path d="M156.968 126.153L164.612 157.584L158.427 179.237L152.318 178.923L153.166 160.453L142.387 130.604L156.968 126.153Z" fill="#473F47"/>
<path d="M178.05 100.088C178.965 99.5439 179.949 99.124 180.975 98.8391C181.135 98.7698 181.31 98.7397 181.484 98.7513C181.658 98.7629 181.827 98.8159 181.976 98.9059C182.136 99.054 182.24 99.2525 182.272 99.4682C182.434 100.161 182.377 100.887 182.109 101.546C183.266 102.182 184.478 102.711 185.731 103.128C185.993 103.172 186.242 103.27 186.464 103.416C186.685 103.562 186.874 103.753 187.018 103.976C187.096 104.209 187.103 104.459 187.036 104.696C186.97 104.932 186.834 105.143 186.646 105.301C186.265 105.607 185.812 105.81 185.331 105.892C182.186 106.625 177.068 105.892 176.325 102.137C176.163 101.317 176.458 101.184 177.116 100.698C177.421 100.478 177.726 100.278 178.05 100.088Z" fill="#FCBDBA"/>
<path d="M154.386 71.0772C155.108 72.5057 155.569 74.0516 155.749 75.6422C155.831 76.4379 155.705 77.2413 155.382 77.9732C155.06 78.7052 154.552 79.3405 153.909 79.8165C153.521 80.0008 153.156 80.2312 152.823 80.5027C151.679 81.6845 152.994 83.8288 152.327 85.3537C152.069 85.8552 151.632 86.2419 151.103 86.4377C150.574 86.6335 149.991 86.6241 149.468 86.4115C148.951 86.1775 148.493 85.8311 148.127 85.3975C147.761 84.9638 147.496 84.454 147.352 83.905C147.056 82.7962 146.924 81.6498 146.962 80.5027L146.847 73.6695C146.686 72.1515 146.923 70.6178 147.533 69.2188C147.944 68.505 148.544 67.9188 149.268 67.5252C149.991 67.1316 150.809 66.9459 151.631 66.9887C153.328 67.2365 153.814 69.7334 154.386 71.0772Z" fill="#FCBDBA"/>
<path d="M178.212 105.167C178.212 105.167 165.117 116.861 164.183 116.861C163.249 116.861 157.445 109.513 157.445 109.513L156.968 126.153C155.349 127.103 153.664 127.937 151.927 128.65C149.068 129.813 145.513 130.89 142.397 130.556C136.03 129.975 133.228 127.84 133.228 127.84L137.145 88.6416C137.145 88.6416 144.56 83.3142 147.095 84.1242C148.907 84.4484 150.763 84.4484 152.575 84.1242C156.235 83.6382 159.98 88.6416 159.98 88.6416L164.841 104.634L176.277 100.574C177.027 101.053 177.613 101.749 177.959 102.57C178.304 103.39 178.392 104.296 178.212 105.167Z" fill="white"/>
<path d="M155.834 63.7198C155.92 62.8595 155.719 61.995 155.263 61.261C154.376 60.0316 152.585 59.9172 151.107 60.2508C150.093 60.5312 149.109 60.9144 148.172 61.3944C147.489 61.6802 146.741 61.7758 146.009 61.6708C144.061 61.6445 142.174 62.3483 140.719 63.6436C138.737 65.5496 138.26 68.323 138.06 70.9343C137.841 73.8887 139.175 76.3284 141.1 78.5585C142.768 80.5218 145.78 82.4469 147.943 79.969C148.901 78.7054 149.337 77.1228 149.163 75.5469C148.641 75.5052 148.146 75.2977 147.75 74.9549C147.354 74.612 147.078 74.1516 146.962 73.6409C146.882 73.3235 146.895 72.9902 146.998 72.6797C147.101 72.3692 147.29 72.0944 147.543 71.8873C147.699 71.792 147.872 71.7285 148.052 71.7005C148.232 71.6724 148.416 71.6803 148.593 71.7237C148.771 71.7671 148.937 71.8452 149.084 71.9534C149.231 72.0616 149.355 72.1979 149.449 72.3543C149.505 72.4536 149.55 72.5592 149.582 72.6688C149.894 72.0413 150.118 71.3744 150.25 70.6865C150.507 70.0289 151.336 69.4571 151.879 69.8955C152.194 70.1528 152.384 70.696 152.785 70.6102C152.918 70.5625 153.034 70.4762 153.118 70.3624C153.908 69.6014 154.576 68.724 155.101 67.7607C155.577 66.6188 155.826 65.3953 155.834 64.1582C155.825 64.0343 155.834 63.8723 155.834 63.7198Z" fill="#FC682D"/>
<path d="M130.102 62.2331C128.726 62.0644 127.331 62.3221 126.106 62.9714C124.88 63.6207 123.884 64.6304 123.25 65.8641C121.735 68.9615 122.821 72.6116 123.069 76.052C123.295 77.2455 123.109 78.4803 122.541 79.554C121.973 80.6276 121.057 81.4763 119.943 81.9608C117.513 83.419 114.73 84.4006 112.786 86.4687C111.259 88.1704 110.358 90.3422 110.232 92.6253C110.106 93.5798 110.272 94.55 110.708 95.4081C111.136 96.0377 111.691 96.5703 112.338 96.9711C114.128 98.2743 116.16 99.207 118.316 99.7143C120.471 100.222 122.706 100.293 124.889 99.9255C129.216 99.0392 133.114 95.6845 134.029 91.3482C134.982 86.7737 132.666 82.2277 131.789 77.6436C131.624 77.1065 131.57 76.5411 131.63 75.9823C131.691 75.4234 131.865 74.8829 132.142 74.3938C132.866 73.4407 134.22 73.1929 135.258 72.5735C140.958 69.2283 134.277 62.8239 130.102 62.2331Z" fill="#FC682D"/>
<path d="M138.203 66.6837H138.117C136.923 66.6837 135.954 67.6523 135.954 68.8471V68.9329C135.954 70.1277 136.923 71.0963 138.117 71.0963H138.203C139.398 71.0963 140.367 70.1277 140.367 68.9329V68.8471C140.367 67.6523 139.398 66.6837 138.203 66.6837Z" fill="#FF3636"/>
<path d="M155.377 183.326C155.242 183.21 155.12 183.078 155.015 182.935C154.874 183.023 154.717 183.081 154.553 183.106C154.389 183.131 154.222 183.121 154.062 183.078L152.632 182.868C152.378 182.841 152.131 182.773 151.898 182.668H151.794L151.498 183.268C151.004 184.324 150.726 185.468 150.678 186.633C153.398 187.215 156.184 187.423 158.96 187.252C159.182 187.278 159.408 187.244 159.612 187.154C159.817 187.063 159.993 186.919 160.123 186.737C160.176 186.617 160.203 186.487 160.203 186.356C160.203 186.225 160.176 186.095 160.123 185.975C159.986 185.703 159.797 185.462 159.567 185.264C159.336 185.066 159.068 184.916 158.779 184.822C158.036 184.526 157.273 184.288 156.549 183.945C156.132 183.792 155.738 183.584 155.377 183.326Z" fill="#FF3636"/>
<path d="M155.987 191.76H151.603L148.096 201.224H129.988L133.495 191.76H129.111L98.3283 274.95H102.712L105.762 266.725H123.87L120.82 274.95H125.204L128.254 266.725H128.377V266.373L155.758 192.398V274.95H160.152V191.76H155.987ZM146.895 204.426L142.339 216.815H124.232L128.806 204.426H146.895ZM118.475 232.35L123.04 220.017H141.148L136.583 232.35H118.475ZM135.373 235.58L130.817 247.913H112.71L117.275 235.58H135.373ZM106.963 263.514L111.518 251.124H129.626L125.051 263.514H106.963Z" fill="#FF3636"/>
<path d="M155.987 191.76H151.603L148.096 201.224H129.988L133.495 191.76H129.111L98.3283 274.95H102.712L105.762 266.725H123.87L120.82 274.95H125.204L128.254 266.725H128.377V266.373L155.758 192.398V274.95H160.152V191.76H155.987ZM146.895 204.426L142.339 216.815H124.232L128.806 204.426H146.895ZM118.475 232.35L123.04 220.017H141.148L136.583 232.35H118.475ZM135.373 235.58L130.817 247.913H112.71L117.275 235.58H135.373ZM106.963 263.514L111.518 251.124H129.626L125.051 263.514H106.963Z" fill="url(#paint0_linear)"/>
<path d="M280.444 135.912H214.455C211.782 135.912 209.614 138.08 209.614 140.754V184.66C209.614 187.334 211.782 189.501 214.455 189.501H280.444C283.117 189.501 285.285 187.334 285.285 184.66V140.754C285.285 138.08 283.117 135.912 280.444 135.912Z" fill="white"/>
<path opacity="0.1" d="M200.293 142.202H170.93C169.472 142.202 168.291 143.384 168.291 144.842V144.852C168.291 146.31 169.472 147.491 170.93 147.491H200.293C201.751 147.491 202.933 146.31 202.933 144.852V144.842C202.933 143.384 201.751 142.202 200.293 142.202Z" fill="#020202"/>
<path opacity="0.1" d="M200.293 152.695H170.93C169.472 152.695 168.291 153.877 168.291 155.335V155.345C168.291 156.802 169.472 157.984 170.93 157.984H200.293C201.751 157.984 202.933 156.802 202.933 155.345V155.335C202.933 153.877 201.751 152.695 200.293 152.695Z" fill="#020202"/>
<path opacity="0.1" d="M200.293 163.188H170.93C169.472 163.188 168.291 164.37 168.291 165.828V165.837C168.291 167.295 169.472 168.477 170.93 168.477H200.293C201.751 168.477 202.933 167.295 202.933 165.837V165.828C202.933 164.37 201.751 163.188 200.293 163.188Z" fill="#020202"/>
<path d="M273.715 182.096H221.184V143.317H222.137V181.143H273.715V182.096Z" fill="#FF3636"/>
<path d="M221.803 168.163L221.308 167.343L234.555 159.204L254.025 162.216L271.228 152.285L271.704 153.105L254.206 163.207L254.044 163.178L234.755 160.195L221.803 168.163Z" fill="#FF3636"/>
<path d="M235.241 161.873C236.389 161.873 237.319 160.943 237.319 159.795C237.319 158.648 236.389 157.718 235.241 157.718C234.094 157.718 233.164 158.648 233.164 159.795C233.164 160.943 234.094 161.873 235.241 161.873Z" fill="#FF3636"/>
<path d="M254.121 164.779C255.268 164.779 256.198 163.849 256.198 162.702C256.198 161.554 255.268 160.624 254.121 160.624C252.973 160.624 252.043 161.554 252.043 162.702C252.043 163.849 252.973 164.779 254.121 164.779Z" fill="#FF3636"/>
<path d="M271.113 155.087C272.261 155.087 273.191 154.157 273.191 153.01C273.191 151.862 272.261 150.932 271.113 150.932C269.966 150.932 269.036 151.862 269.036 153.01C269.036 154.157 269.966 155.087 271.113 155.087Z" fill="#FF3636"/>
<path opacity="0.28" d="M235.241 161.873C236.389 161.873 237.319 160.943 237.319 159.795C237.319 158.648 236.389 157.718 235.241 157.718C234.094 157.718 233.164 158.648 233.164 159.795C233.164 160.943 234.094 161.873 235.241 161.873Z" fill="#020202"/>
<path opacity="0.28" d="M254.121 164.779C255.268 164.779 256.198 163.849 256.198 162.702C256.198 161.554 255.268 160.624 254.121 160.624C252.973 160.624 252.043 161.554 252.043 162.702C252.043 163.849 252.973 164.779 254.121 164.779Z" fill="#020202"/>
<path opacity="0.28" d="M271.113 155.087C272.261 155.087 273.191 154.157 273.191 153.01C273.191 151.862 272.261 150.932 271.113 150.932C269.966 150.932 269.036 151.862 269.036 153.01C269.036 154.157 269.966 155.087 271.113 155.087Z" fill="#020202"/>
</g>
<defs>
<linearGradient id="paint0_linear" x1="188.886" y1="206.084" x2="50.4289" y2="291.409" gradientUnits="userSpaceOnUse">
<stop offset="0.01"/>
<stop offset="0.08" stop-opacity="0.69"/>
<stop offset="0.21" stop-opacity="0.32"/>
<stop offset="1" stop-opacity="0"/>
</linearGradient>
<clipPath id="clip0">
<rect width="406" height="306" fill="white"/>
</clipPath>
</defs>
</svg>
