<svg width="302" height="247" viewBox="0 0 302 247" fill="none" xmlns="http://www.w3.org/2000/svg">
<path d="M301.144 215.16H2.78492C2.70637 215.182 2.62369 215.186 2.54338 215.171C2.46306 215.156 2.38732 215.123 2.3221 215.074C2.25689 215.024 2.20398 214.961 2.16755 214.888C2.13112 214.814 2.11215 214.734 2.11215 214.652C2.11215 214.571 2.13112 214.49 2.16755 214.417C2.20398 214.344 2.25689 214.28 2.3221 214.231C2.38732 214.182 2.46306 214.148 2.54338 214.133C2.62369 214.118 2.70637 214.122 2.78492 214.145H301.195C301.305 214.176 301.402 214.243 301.471 214.334C301.54 214.426 301.578 214.537 301.578 214.652C301.578 214.767 301.54 214.878 301.471 214.97C301.402 215.062 301.305 215.128 301.195 215.16H301.144Z" fill="#D1D3D4"/>
<path d="M283.757 7.83582H20.1719V161.791H283.757V7.83582Z" fill="white"/>
<path d="M283.767 162.319H20.1718C20.1025 162.319 20.0339 162.305 19.9699 162.279C19.9058 162.252 19.8476 162.213 19.7986 162.164C19.7496 162.115 19.7107 162.057 19.6842 161.993C19.6577 161.929 19.644 161.86 19.644 161.791V7.83578C19.644 7.6958 19.6997 7.56155 19.7986 7.46257C19.8976 7.36359 20.0319 7.30798 20.1718 7.30798H283.767C283.836 7.30797 283.904 7.32169 283.968 7.34833C284.031 7.37498 284.089 7.41402 284.137 7.46317C284.185 7.51232 284.223 7.57059 284.249 7.63457C284.274 7.69855 284.286 7.76695 284.285 7.83578V161.791C284.285 161.929 284.231 162.062 284.134 162.161C284.037 162.259 283.906 162.316 283.767 162.319ZM20.6996 161.304H283.229V8.36358H20.6895L20.6996 161.304Z" fill="#D1D3D4"/>
<path d="M283.757 0.527832H20.1719V7.83583H283.757V0.527832Z" fill="white"/>
<path d="M283.767 8.3636H20.1718C20.0319 8.3636 19.8976 8.30799 19.7986 8.20901C19.6997 8.11003 19.644 7.97578 19.644 7.8358V0.5278C19.644 0.387819 19.6997 0.253568 19.7986 0.154586C19.8976 0.0556046 20.0319 9.56909e-09 20.1718 9.56909e-09H283.767C283.836 -1.32254e-05 283.904 0.0137025 283.968 0.0403493C284.031 0.066996 284.089 0.106038 284.137 0.155186C284.185 0.204335 284.223 0.262604 284.249 0.326585C284.274 0.390565 284.286 0.458972 284.285 0.5278V7.8358C284.285 7.97404 284.231 8.10677 284.134 8.20547C284.037 8.30416 283.906 8.36094 283.767 8.3636ZM20.6996 7.3486H283.229V1.04545H20.6895L20.6996 7.3486Z" fill="#D1D3D4"/>
<path d="M160.567 104.565H146.235V150.565H160.567V104.565Z" fill="white"/>
<path d="M160.567 151.083H146.235C146.166 151.084 146.098 151.072 146.034 151.046C145.97 151.021 145.911 150.983 145.862 150.935C145.813 150.887 145.774 150.829 145.747 150.766C145.721 150.702 145.707 150.634 145.707 150.565V104.565C145.707 104.425 145.763 104.291 145.862 104.192C145.961 104.093 146.095 104.037 146.235 104.037H160.567C160.707 104.037 160.841 104.093 160.94 104.192C161.039 104.291 161.094 104.425 161.094 104.565V150.565C161.094 150.634 161.081 150.702 161.054 150.766C161.027 150.829 160.988 150.887 160.939 150.935C160.89 150.983 160.832 151.021 160.768 151.046C160.704 151.072 160.635 151.084 160.567 151.083ZM146.763 150.068H160.049V105.083H146.742L146.763 150.068Z" fill="#D1D3D4"/>
<path d="M91.5466 161.791C91.5466 161.791 94.683 144.333 106.477 139.542C118.272 134.751 124.676 144.617 124.676 144.617C124.676 144.617 127.721 128.377 146.458 128.377C165.195 128.377 169.519 141.146 169.519 141.146C169.519 141.146 173.366 133.432 181.821 133.96C190.276 134.487 191.565 145.125 191.565 145.125C194.026 144.034 196.688 143.47 199.38 143.47C202.072 143.47 204.735 144.034 207.196 145.125C215.316 148.9 218.736 161.842 218.736 161.842L91.5466 161.791Z" fill="white"/>
<path d="M218.736 162.319H91.5467C91.4691 162.318 91.3927 162.3 91.3226 162.267C91.2525 162.234 91.1905 162.185 91.1407 162.126C91.0487 162.004 91.0086 161.851 91.029 161.7C91.161 160.969 94.3582 143.897 106.254 139.055C109.337 137.664 112.795 137.339 116.083 138.131C119.371 138.923 122.301 140.787 124.412 143.43C125.519 139.755 130.35 127.839 146.438 127.839C162.241 127.839 168.078 136.974 169.57 140.019C170.94 137.938 174.929 133.006 181.841 133.452C189.332 133.919 191.473 141.917 191.991 144.343C194.451 143.341 197.089 142.85 199.744 142.899C202.4 142.948 205.018 143.536 207.439 144.627C215.691 148.454 219.112 161.141 219.254 161.679C219.275 161.756 219.277 161.836 219.261 161.913C219.245 161.991 219.212 162.064 219.163 162.126C219.113 162.191 219.048 162.242 218.974 162.276C218.899 162.309 218.818 162.324 218.736 162.319ZM92.1861 161.304H218.046C217.224 158.655 213.763 148.738 206.993 145.592C204.593 144.539 202.001 143.995 199.38 143.995C196.76 143.995 194.168 144.539 191.768 145.592C191.695 145.632 191.613 145.653 191.529 145.653C191.446 145.653 191.364 145.632 191.291 145.592C191.217 145.552 191.154 145.496 191.106 145.427C191.058 145.358 191.028 145.279 191.017 145.196C191.017 145.094 189.677 135.046 181.76 134.528C173.843 134.01 169.996 141.349 169.966 141.42C169.917 141.511 169.844 141.586 169.754 141.637C169.664 141.687 169.561 141.71 169.458 141.704C169.356 141.699 169.258 141.664 169.176 141.602C169.095 141.541 169.034 141.456 169.001 141.359C168.951 141.227 164.515 128.935 146.428 128.935C138.856 128.935 132.979 131.585 128.96 136.812C127.154 139.161 125.857 141.861 125.153 144.739C125.135 144.841 125.087 144.935 125.014 145.009C124.942 145.084 124.849 145.134 124.747 145.155C124.644 145.177 124.537 145.167 124.439 145.128C124.341 145.088 124.258 145.02 124.199 144.932C122.306 142.192 119.511 140.205 116.301 139.316C113.092 138.428 109.672 138.694 106.64 140.07C96.5303 144.15 92.8865 158.147 92.1861 161.263V161.304Z" fill="#D1D3D4"/>
<path d="M160.993 111.863H145.433L143.565 104.393H162.861L160.993 111.863Z" fill="white"/>
<path d="M160.952 112.391H145.433C145.316 112.392 145.202 112.353 145.11 112.282C145.018 112.21 144.953 112.109 144.926 111.995L143.058 104.525C143.037 104.447 143.035 104.365 143.05 104.286C143.066 104.207 143.1 104.132 143.149 104.068C143.2 104.007 143.264 103.958 143.336 103.925C143.408 103.892 143.486 103.875 143.565 103.875H162.85C162.93 103.875 163.008 103.892 163.08 103.925C163.152 103.958 163.216 104.007 163.267 104.068C163.314 104.133 163.346 104.208 163.362 104.286C163.378 104.365 163.376 104.447 163.358 104.525L161.49 111.995C161.462 112.114 161.392 112.219 161.294 112.291C161.195 112.364 161.074 112.399 160.952 112.391ZM145.798 111.376H160.546L162.15 104.951H144.235L145.798 111.376Z" fill="#D1D3D4"/>
<path d="M135.77 81.0579C135.77 81.0579 127.65 86.1329 124.778 94.6487C121.905 103.165 128.411 119.567 128.411 119.567L143.241 103.489L135.77 81.0579Z" fill="white"/>
<path d="M128.411 120.095H128.31C128.223 120.079 128.142 120.041 128.074 119.984C128.006 119.927 127.955 119.853 127.924 119.77C127.65 119.09 121.428 103.073 124.291 94.4965C127.153 85.9197 135.151 80.8346 135.456 80.6214C135.525 80.5866 135.601 80.5685 135.679 80.5685C135.756 80.5685 135.833 80.5866 135.902 80.6214C135.978 80.6469 136.046 80.6895 136.103 80.7458C136.159 80.8022 136.201 80.8707 136.227 80.9462L143.697 103.317C143.728 103.407 143.734 103.503 143.714 103.596C143.694 103.689 143.65 103.775 143.586 103.845L128.746 119.922C128.705 119.972 128.654 120.013 128.596 120.042C128.539 120.072 128.476 120.09 128.411 120.095ZM135.516 81.88C133.649 83.1995 127.61 87.8787 125.295 94.8213C122.91 101.997 127.396 115.233 128.614 118.593L142.672 103.368L135.516 81.88Z" fill="#D1D3D4"/>
<path d="M171.031 81.0579C171.031 81.0579 179.151 86.1329 182.024 94.6487C184.896 103.165 178.39 119.567 178.39 119.567L163.561 103.489L171.031 81.0579Z" fill="white"/>
<path d="M178.4 120.095C178.327 120.096 178.255 120.081 178.188 120.051C178.121 120.022 178.062 119.978 178.014 119.922L163.175 103.845C163.111 103.775 163.066 103.689 163.047 103.596C163.027 103.503 163.033 103.407 163.064 103.317L170.534 80.8954C170.559 80.82 170.602 80.7514 170.658 80.695C170.715 80.6387 170.783 80.5961 170.859 80.5706C170.928 80.5358 171.004 80.5177 171.082 80.5177C171.16 80.5177 171.236 80.5358 171.305 80.5706C171.65 80.7838 179.659 85.8689 182.521 94.4457C185.383 103.022 179.151 119.039 178.887 119.719C178.854 119.802 178.8 119.875 178.731 119.932C178.661 119.988 178.579 120.027 178.492 120.044L178.4 120.095ZM164.19 103.357L178.248 118.582C179.466 115.223 183.952 101.977 181.567 94.8111C179.253 87.8685 173.214 83.1893 171.356 81.8698L164.19 103.357Z" fill="#D1D3D4"/>
<path d="M166.545 107.225C170.605 97.5211 173.143 83.4533 173.143 67.8121C173.132 44.1119 160.069 31.739 155.096 27.8719C154.559 27.4496 153.896 27.22 153.213 27.22C152.53 27.22 151.867 27.4496 151.33 27.8719C146.357 31.6984 133.273 44.051 133.273 67.7715C133.273 83.4127 135.831 97.4806 139.881 107.184C139.881 107.184 143.941 109.214 153.208 109.214C162.475 109.214 166.545 107.225 166.545 107.225Z" fill="white"/>
<path d="M153.208 109.782C143.91 109.782 139.82 107.752 139.647 107.692C139.537 107.636 139.45 107.542 139.404 107.428C135.171 97.2776 132.756 82.8748 132.756 67.8426C132.756 44.1728 145.524 31.7594 151.026 27.5268C151.658 27.0388 152.434 26.774 153.233 26.774C154.032 26.774 154.808 27.0388 155.441 27.5268C160.922 31.7594 173.711 44.1627 173.711 67.8426C173.711 82.9154 171.285 97.3487 167.063 107.428C167.013 107.54 166.927 107.633 166.819 107.692C166.606 107.773 162.515 109.782 153.208 109.782ZM140.287 106.829C141.14 107.194 145.22 108.737 153.208 108.737C161.196 108.737 165.286 107.194 166.139 106.829C170.26 96.8615 172.625 82.6515 172.625 67.8122C172.625 44.5991 160.14 32.4597 154.781 28.3185C154.329 27.9785 153.779 27.7945 153.213 27.7945C152.647 27.7945 152.097 27.9785 151.645 28.3185C146.286 32.4699 133.801 44.5585 133.801 67.8122C133.801 82.6819 136.166 96.8919 140.287 106.829Z" fill="#D1D3D4"/>
<path d="M151.33 27.8719C145.234 32.7293 140.465 39.0489 137.465 46.2434H168.93C165.939 39.0522 161.181 32.733 155.096 27.8719C154.559 27.4496 153.896 27.22 153.213 27.22C152.53 27.22 151.867 27.4496 151.33 27.8719Z" fill="white"/>
<path d="M168.961 46.8118H137.496C137.409 46.8124 137.324 46.7914 137.248 46.7506C137.172 46.7098 137.107 46.6506 137.059 46.5783C137.011 46.5057 136.981 46.4225 136.973 46.3359C136.964 46.2493 136.976 46.1618 137.009 46.081C140.028 38.8023 144.843 32.4081 151.005 27.4963C151.638 27.0083 152.414 26.7435 153.213 26.7435C154.012 26.7435 154.788 27.0083 155.421 27.4963C161.594 32.4044 166.42 38.7989 169.448 46.081C169.48 46.1618 169.493 46.2493 169.484 46.3359C169.475 46.4225 169.445 46.5057 169.397 46.5783C169.349 46.65 169.284 46.7087 169.208 46.7494C169.132 46.7901 169.047 46.8115 168.961 46.8118ZM138.257 45.7968H168.159C165.197 38.9722 160.603 32.9804 154.781 28.3489C154.329 28.0088 153.779 27.8249 153.213 27.8249C152.647 27.8249 152.097 28.0088 151.645 28.3489C145.826 32.9736 141.229 38.9538 138.257 45.7663V45.7968Z" fill="#D1D3D4"/>
<path d="M153.989 76.0743C160.705 76.0743 166.149 70.6302 166.149 63.9146C166.149 57.199 160.705 51.7549 153.989 51.7549C147.274 51.7549 141.83 57.199 141.83 63.9146C141.83 70.6302 147.274 76.0743 153.989 76.0743Z" fill="white"/>
<path d="M153.99 76.5919C151.48 76.5919 149.027 75.8478 146.941 74.4537C144.854 73.0596 143.228 71.0781 142.268 68.7597C141.307 66.4414 141.056 63.8904 141.546 61.4292C142.035 58.9681 143.244 56.7074 145.018 54.933C146.792 53.1586 149.053 51.9503 151.514 51.4607C153.975 50.9712 156.526 51.2224 158.845 52.1827C161.163 53.143 163.145 54.7692 164.539 56.8556C165.933 58.9421 166.677 61.3951 166.677 63.9044C166.674 67.2685 165.337 70.4941 162.958 72.8729C160.579 75.2517 157.354 76.5892 153.99 76.5919ZM153.99 52.2319C151.686 52.2319 149.435 52.915 147.52 54.1947C145.606 55.4744 144.114 57.2932 143.233 59.4211C142.352 61.549 142.122 63.8903 142.572 66.149C143.022 68.4076 144.132 70.482 145.761 72.1097C147.39 73.7375 149.465 74.8455 151.724 75.2936C153.983 75.7416 156.325 75.5096 158.452 74.6269C160.579 73.7442 162.396 72.2504 163.674 70.3346C164.952 68.4187 165.634 66.1668 165.632 63.8638C165.615 60.7867 164.382 57.8411 162.2 55.671C160.019 53.5008 157.067 52.2826 153.99 52.2827V52.2319Z" fill="#D1D3D4"/>
<path d="M153.989 71.4154C158.132 71.4154 161.49 68.0572 161.49 63.9145C161.49 59.7719 158.132 56.4137 153.989 56.4137C149.847 56.4137 146.489 59.7719 146.489 63.9145C146.489 68.0572 149.847 71.4154 153.989 71.4154Z" fill="white"/>
<path d="M153.989 71.9432C152.402 71.9432 150.849 71.4723 149.529 70.5901C148.209 69.7079 147.18 68.454 146.572 66.9869C145.964 65.5199 145.805 63.9056 146.115 62.3482C146.425 60.7908 147.19 59.3602 148.312 58.2374C149.435 57.1146 150.866 56.3499 152.423 56.0401C153.981 55.7304 155.595 55.8893 157.062 56.497C158.529 57.1047 159.783 58.1337 160.665 59.454C161.547 60.7743 162.018 62.3266 162.018 63.9145C162.018 66.0438 161.172 68.086 159.667 69.5916C158.161 71.0973 156.119 71.9432 153.989 71.9432ZM153.989 56.9415C152.608 56.9415 151.257 57.3513 150.109 58.1191C148.96 58.8868 148.065 59.9781 147.537 61.2547C147.009 62.5313 146.871 63.9359 147.141 65.2908C147.411 66.6456 148.078 67.8899 149.055 68.8661C150.033 69.8423 151.278 70.5066 152.633 70.7749C153.989 71.0432 155.393 70.9035 156.669 70.3734C157.945 69.8433 159.035 68.9467 159.801 67.7969C160.567 66.6472 160.975 65.2961 160.973 63.9145C160.97 62.0642 160.233 60.2906 158.924 58.9832C157.614 57.6758 155.84 56.9415 153.989 56.9415Z" fill="#D1D3D4"/>
<path d="M159.937 63.7318C159.815 63.7309 159.697 63.6866 159.604 63.6066C159.511 63.5267 159.449 63.4164 159.43 63.2954C159.349 61.9364 158.735 60.6641 157.723 59.7541C156.71 58.8441 155.38 58.3697 154.02 58.4335C153.953 58.4382 153.886 58.4297 153.823 58.4085C153.76 58.3873 153.701 58.3538 153.651 58.31C153.549 58.2215 153.486 58.0961 153.477 57.9615C153.467 57.8269 153.512 57.6941 153.6 57.5923C153.689 57.4904 153.814 57.4279 153.949 57.4185C155.56 57.3554 157.134 57.9164 158.342 58.9846C159.551 60.0529 160.3 61.5461 160.435 63.1533C160.452 63.2849 160.417 63.4182 160.338 63.5245C160.258 63.6308 160.14 63.7016 160.008 63.7217L159.937 63.7318Z" fill="#D1D3D4"/>
<path d="M151.35 59.1542C151.272 59.1554 151.195 59.1387 151.125 59.1052C151.055 59.0718 150.993 59.0226 150.944 58.9614C150.865 58.854 150.83 58.7202 150.847 58.5878C150.864 58.4554 150.932 58.3347 151.036 58.2509C151.473 57.9281 151.981 57.7157 152.518 57.6317C152.584 57.6233 152.652 57.6281 152.717 57.646C152.782 57.6639 152.842 57.6946 152.895 57.7361C152.948 57.7777 152.992 57.8293 153.025 57.8881C153.058 57.9468 153.079 58.0115 153.086 58.0784C153.101 58.2111 153.063 58.3444 152.982 58.4503C152.901 58.5562 152.782 58.6266 152.65 58.6467C152.284 58.6998 151.936 58.839 151.635 59.0528C151.553 59.1164 151.454 59.1521 151.35 59.1542Z" fill="#D1D3D4"/>
<path d="M165.073 104.139C165.02 104.15 164.964 104.15 164.911 104.139C164.783 104.097 164.677 104.006 164.616 103.887C164.555 103.767 164.544 103.627 164.586 103.5C166.684 96.8411 168.379 90.0622 169.661 83.1996C169.672 83.1338 169.696 83.0708 169.732 83.0145C169.768 82.9582 169.814 82.9096 169.869 82.8717C169.924 82.8339 169.986 82.8074 170.052 82.794C170.117 82.7806 170.184 82.7804 170.25 82.7936C170.381 82.8183 170.498 82.894 170.574 83.0043C170.65 83.1146 170.68 83.2504 170.656 83.3823C169.377 90.299 167.683 97.1322 165.581 103.845C165.537 103.94 165.465 104.02 165.374 104.073C165.283 104.125 165.178 104.149 165.073 104.139Z" fill="white"/>
<path d="M155.136 123.028C155.002 123.028 154.873 122.975 154.778 122.879C154.682 122.784 154.629 122.655 154.629 122.521V112.888C154.629 112.754 154.682 112.625 154.778 112.529C154.873 112.434 155.002 112.381 155.136 112.381C155.271 112.381 155.4 112.434 155.495 112.529C155.59 112.625 155.644 112.754 155.644 112.888V122.521C155.644 122.655 155.59 122.784 155.495 122.879C155.4 122.975 155.271 123.028 155.136 123.028Z" fill="#D1D3D4"/>
<path d="M149.94 128.073C149.806 128.07 149.678 128.016 149.584 127.921C149.489 127.827 149.435 127.699 149.432 127.565V117.486C149.435 117.352 149.489 117.225 149.584 117.13C149.678 117.036 149.806 116.981 149.94 116.979C150.074 116.979 150.203 117.032 150.298 117.127C150.394 117.223 150.447 117.352 150.447 117.486V127.565C150.447 127.7 150.394 127.829 150.298 127.924C150.203 128.019 150.074 128.073 149.94 128.073Z" fill="#D1D3D4"/>
<path d="M118.942 152.9H118.85C118.784 152.887 118.721 152.862 118.664 152.825C118.608 152.789 118.559 152.741 118.522 152.685C118.484 152.63 118.458 152.567 118.444 152.501C118.431 152.435 118.431 152.367 118.444 152.301C118.444 152.098 119.459 147.114 123.874 144.81C127.072 143.135 131.162 143.359 136.054 145.48C136.122 145.501 136.185 145.537 136.239 145.584C136.292 145.631 136.335 145.689 136.364 145.754C136.394 145.819 136.409 145.89 136.41 145.961C136.41 146.032 136.395 146.103 136.367 146.168C136.338 146.234 136.296 146.292 136.243 146.34C136.19 146.388 136.128 146.424 136.06 146.446C135.992 146.469 135.921 146.476 135.85 146.469C135.779 146.462 135.71 146.439 135.648 146.404C131.071 144.374 127.275 144.181 124.362 145.703C120.423 147.733 119.459 152.453 119.449 152.504C119.425 152.619 119.361 152.722 119.268 152.795C119.175 152.867 119.059 152.904 118.942 152.9Z" fill="#D1D3D4"/>
<path d="M176.594 146.86C176.522 146.86 176.452 146.844 176.387 146.814C176.323 146.784 176.265 146.741 176.218 146.688C169.001 138.71 163.541 141.958 163.49 141.988C163.434 142.025 163.371 142.05 163.304 142.062C163.238 142.074 163.17 142.072 163.105 142.057C163.04 142.042 162.978 142.013 162.924 141.974C162.869 141.934 162.824 141.884 162.79 141.826C162.722 141.71 162.702 141.572 162.734 141.441C162.766 141.31 162.848 141.197 162.962 141.126C163.206 140.973 169.194 137.411 176.969 146.008C177.017 146.055 177.054 146.111 177.08 146.173C177.106 146.235 177.119 146.301 177.119 146.368C177.119 146.435 177.106 146.501 177.08 146.563C177.054 146.625 177.017 146.681 176.969 146.728C176.864 146.817 176.731 146.864 176.594 146.86Z" fill="#D1D3D4"/>
<path d="M211.499 44.8122H182.734C182.6 44.8122 182.471 44.7588 182.375 44.6636C182.28 44.5684 182.227 44.4393 182.227 44.3047C182.227 44.1701 182.28 44.0411 182.375 43.9459C182.471 43.8507 182.6 43.7972 182.734 43.7972H211.499C211.634 43.7972 211.763 43.8507 211.858 43.9459C211.953 44.0411 212.007 44.1701 212.007 44.3047C212.007 44.4393 211.953 44.5684 211.858 44.6636C211.763 44.7588 211.634 44.8122 211.499 44.8122Z" fill="#D1D3D4"/>
<path d="M211.499 51.3387H182.734C182.6 51.3387 182.471 51.2853 182.375 51.1901C182.28 51.0949 182.227 50.9658 182.227 50.8312C182.229 50.6974 182.284 50.5699 182.378 50.4752C182.473 50.3806 182.601 50.3263 182.734 50.3237H211.499C211.634 50.3237 211.763 50.3772 211.858 50.4724C211.953 50.5675 212.007 50.6966 212.007 50.8312C212.007 50.9658 211.953 51.0949 211.858 51.1901C211.763 51.2853 211.634 51.3387 211.499 51.3387Z" fill="#D1D3D4"/>
<path d="M211.499 57.8754H182.734C182.601 57.8728 182.473 57.8185 182.378 57.7238C182.284 57.6292 182.229 57.5016 182.227 57.3679C182.227 57.2333 182.28 57.1042 182.375 57.009C182.471 56.9138 182.6 56.8604 182.734 56.8604H211.499C211.634 56.8604 211.763 56.9138 211.858 57.009C211.953 57.1042 212.007 57.2333 212.007 57.3679C212.007 57.5024 211.953 57.6315 211.858 57.7267C211.763 57.8219 211.634 57.8754 211.499 57.8754Z" fill="#D1D3D4"/>
<path d="M201.299 64.4119H182.734C182.6 64.4119 182.471 64.3584 182.375 64.2632C182.28 64.168 182.227 64.0389 182.227 63.9044C182.227 63.7698 182.28 63.6407 182.375 63.5455C182.471 63.4503 182.6 63.3969 182.734 63.3969H201.299C201.433 63.3969 201.562 63.4503 201.657 63.5455C201.753 63.6407 201.806 63.7698 201.806 63.9044C201.806 64.0389 201.753 64.168 201.657 64.2632C201.562 64.3584 201.433 64.4119 201.299 64.4119Z" fill="#D1D3D4"/>
<path d="M158.1 126.773C157.966 126.771 157.839 126.717 157.744 126.622C157.65 126.527 157.595 126.4 157.593 126.266V122.074C157.593 121.939 157.646 121.81 157.741 121.715C157.837 121.62 157.966 121.567 158.1 121.567C158.235 121.567 158.364 121.62 158.459 121.715C158.554 121.81 158.608 121.939 158.608 122.074V126.266C158.608 126.401 158.554 126.53 158.459 126.625C158.364 126.72 158.235 126.773 158.1 126.773Z" fill="#D1D3D4"/>
<path d="M125.894 54.607H84.8984C84.7638 54.607 84.6347 54.5535 84.5396 54.4583C84.4444 54.3632 84.3909 54.2341 84.3909 54.0995V30.0541C84.3935 29.9203 84.4478 29.7928 84.5424 29.6981C84.6371 29.6035 84.7646 29.5492 84.8984 29.5466C85.033 29.5466 85.1621 29.6001 85.2573 29.6953C85.3525 29.7904 85.4059 29.9195 85.4059 30.0541V53.592H125.894C126.029 53.592 126.158 53.6455 126.253 53.7406C126.348 53.8358 126.402 53.9649 126.402 54.0995C126.402 54.2341 126.348 54.3632 126.253 54.4583C126.158 54.5535 126.029 54.607 125.894 54.607Z" fill="#D1D3D4"/>
<path d="M89.3543 50.9023C89.3075 50.9128 89.2589 50.9128 89.2122 50.9023C89.0829 50.8646 88.974 50.7771 88.9093 50.6591C88.8445 50.5411 88.8294 50.4022 88.867 50.273C88.9787 49.9177 91.5872 41.5541 97.7483 39.9301C101.189 39.0166 102.113 40.732 103.006 42.3763C103.899 44.0206 104.62 45.3604 107.411 45.4822H107.594C113.379 45.4822 117.926 32.6627 117.967 32.5308C118.012 32.4029 118.105 32.2979 118.227 32.2389C118.287 32.2097 118.353 32.1926 118.419 32.1887C118.486 32.1848 118.553 32.1941 118.617 32.2161C118.68 32.2381 118.738 32.2724 118.788 32.3169C118.839 32.3615 118.879 32.4154 118.909 32.4758C118.938 32.5361 118.955 32.6016 118.959 32.6685C118.963 32.7354 118.953 32.8024 118.931 32.8657C118.728 33.4341 114.09 46.4972 107.584 46.4972H107.371C104.001 46.3449 102.955 44.4672 102.113 42.8635C101.27 41.2598 100.671 40.2042 98.0528 40.9045C92.4297 42.3864 89.9328 50.4861 89.882 50.5673C89.8441 50.6741 89.7715 50.765 89.6758 50.8257C89.5802 50.8864 89.467 50.9134 89.3543 50.9023Z" fill="#D1D3D4"/>
<path d="M194.518 129.078C192.76 129.078 191.041 128.556 189.579 127.579C188.116 126.602 186.977 125.213 186.304 123.589C185.631 121.964 185.455 120.176 185.798 118.452C186.141 116.727 186.988 115.143 188.231 113.899C189.475 112.656 191.059 111.809 192.784 111.466C194.509 111.123 196.296 111.299 197.921 111.972C199.546 112.645 200.934 113.784 201.911 115.246C202.888 116.709 203.41 118.428 203.41 120.186C203.407 122.544 202.47 124.804 200.803 126.47C199.136 128.137 196.876 129.075 194.518 129.078ZM194.518 112.31C192.961 112.31 191.438 112.772 190.143 113.637C188.847 114.503 187.838 115.733 187.242 117.172C186.645 118.611 186.489 120.195 186.793 121.723C187.097 123.251 187.847 124.654 188.949 125.756C190.051 126.857 191.454 127.607 192.982 127.911C194.51 128.215 196.093 128.059 197.533 127.463C198.972 126.867 200.202 125.857 201.067 124.562C201.933 123.267 202.395 121.744 202.395 120.186C202.392 118.098 201.561 116.096 200.085 114.62C198.608 113.143 196.607 112.312 194.518 112.31Z" fill="#D1D3D4"/>
<path d="M201.431 125.434C201.329 125.433 201.23 125.401 201.146 125.342L194.234 120.602C194.165 120.558 194.108 120.496 194.069 120.423C194.03 120.35 194.01 120.269 194.011 120.186V111.802C194.014 111.669 194.068 111.541 194.162 111.446C194.257 111.352 194.385 111.297 194.518 111.295C194.653 111.295 194.782 111.348 194.877 111.443C194.972 111.539 195.026 111.668 195.026 111.802V119.922L201.725 124.51C201.814 124.572 201.88 124.661 201.915 124.763C201.95 124.866 201.951 124.977 201.918 125.08C201.885 125.184 201.82 125.274 201.732 125.337C201.645 125.401 201.539 125.435 201.431 125.434Z" fill="#D1D3D4"/>
<path d="M186.662 122.48C186.547 122.481 186.434 122.442 186.344 122.37C186.254 122.298 186.19 122.197 186.165 122.084C186.15 122.019 186.148 121.952 186.16 121.887C186.171 121.822 186.196 121.759 186.232 121.703C186.268 121.648 186.314 121.6 186.369 121.562C186.424 121.525 186.486 121.499 186.551 121.485L194.407 119.689C194.473 119.674 194.542 119.673 194.61 119.685C194.677 119.697 194.741 119.722 194.798 119.758C194.856 119.795 194.906 119.843 194.945 119.899C194.984 119.955 195.011 120.018 195.026 120.085C195.041 120.151 195.042 120.22 195.03 120.287C195.018 120.355 194.993 120.419 194.956 120.476C194.92 120.534 194.872 120.583 194.816 120.622C194.76 120.661 194.697 120.689 194.63 120.704L186.774 122.49L186.662 122.48Z" fill="#D1D3D4"/>
<path d="M114.973 121.587H102.976C102.841 121.587 102.712 121.533 102.617 121.438C102.521 121.343 102.468 121.214 102.468 121.079C102.468 120.945 102.521 120.816 102.617 120.721C102.712 120.625 102.841 120.572 102.976 120.572H114.973C115.107 120.572 115.236 120.625 115.332 120.721C115.427 120.816 115.48 120.945 115.48 121.079C115.48 121.214 115.427 121.343 115.332 121.438C115.236 121.533 115.107 121.587 114.973 121.587Z" fill="#D1D3D4"/>
<path d="M110.598 126.774H102.976C102.841 126.774 102.712 126.72 102.617 126.625C102.521 126.53 102.468 126.401 102.468 126.266C102.468 126.131 102.521 126.002 102.617 125.907C102.712 125.812 102.841 125.759 102.976 125.759H110.598C110.733 125.759 110.862 125.812 110.957 125.907C111.052 126.002 111.106 126.131 111.106 126.266C111.103 126.4 111.049 126.527 110.954 126.622C110.86 126.717 110.732 126.771 110.598 126.774Z" fill="#D1D3D4"/>
<path d="M232.287 54.1604C231.659 53.699 231.163 53.0816 230.848 52.3694C230.533 51.6572 230.41 50.875 230.49 50.1004C229.698 50.2735 228.87 50.1804 228.136 49.8354C227.402 49.4904 226.802 48.9128 226.43 48.1922C225.723 46.7106 225.527 45.0367 225.872 43.4318C224.636 42.8334 223.604 41.8849 222.903 40.7045C222.202 39.524 221.863 38.1635 221.929 36.7922C221.995 35.4208 222.463 34.0991 223.274 32.9914C224.085 31.8836 225.204 31.0387 226.491 30.5616C226.272 30.4627 226.08 30.3122 225.931 30.1231C225.783 29.934 225.682 29.7119 225.638 29.4756C224.725 26.4306 226.532 23.0202 229.313 21.5078C230.738 20.8115 232.295 20.4268 233.881 20.3796C235.467 20.3323 237.044 20.6235 238.509 21.2338C238.426 20.83 238.46 20.4111 238.608 20.0262C238.755 19.6414 239.01 19.3067 239.341 19.0617C240.011 18.5829 240.782 18.2635 241.594 18.1279C245.675 17.244 249.923 17.5505 253.835 19.0109C255.692 19.7113 257.733 21.1221 257.58 23.0709C258.794 22.8639 260.042 23.0296 261.159 23.5461C262.277 24.0626 263.212 24.9057 263.84 25.9642C264.469 27.0226 264.762 28.2468 264.681 29.4752C264.6 30.7037 264.149 31.8787 263.386 32.8454C264.302 33.7226 264.964 34.8304 265.303 36.0522C265.642 37.2741 265.646 38.5648 265.314 39.7885C264.981 41.0122 264.325 42.1236 263.414 43.0059C262.504 43.8882 261.372 44.5087 260.138 44.8021C260.27 44.3453 260.97 44.7513 261.153 45.1878C262.361 48.2328 260.138 51.7954 257.306 53.5006C254.474 55.2058 250.354 55.5306 247.989 53.1555C248.001 53.9426 247.747 54.7107 247.268 55.3353C246.789 55.9599 246.113 56.4043 245.35 56.5964C243.81 56.9429 242.208 56.8975 240.691 56.4644C239.168 56.1498 237.808 55.3276 236.336 54.9927C234.865 54.6577 233.616 55.1145 232.287 54.1604Z" fill="white"/>
<path d="M243.543 57.3069C242.534 57.2805 241.531 57.1513 240.549 56.9212C239.743 56.7282 238.955 56.4668 238.194 56.1397C237.536 55.8576 236.857 55.6269 236.164 55.4495C235.712 55.3615 235.254 55.314 234.794 55.3074C233.808 55.3609 232.831 55.1016 232.002 54.5664C231.391 54.1172 230.891 53.5345 230.539 52.8626C230.187 52.1906 229.993 51.4473 229.972 50.6891C229.159 50.7269 228.352 50.5321 227.646 50.1276C226.939 49.7232 226.363 49.1258 225.983 48.4054C225.249 46.948 225.011 45.291 225.303 43.6856C224.104 43.0286 223.107 42.0566 222.42 40.8746C221.732 39.6926 221.381 38.3454 221.403 36.9782C221.425 35.611 221.819 34.2757 222.544 33.1164C223.269 31.957 224.297 31.0175 225.516 30.3993C225.35 30.1499 225.223 29.8759 225.141 29.5873C224.207 26.5423 225.922 22.7462 229.059 21.0308C230.426 20.3453 231.917 19.9425 233.443 19.8466C234.969 19.7507 236.498 19.9636 237.94 20.4726C238.063 19.7521 238.442 19.1001 239.006 18.6354C239.735 18.1056 240.581 17.7576 241.472 17.6204C245.647 16.714 249.994 17.024 253.997 18.5136C256.403 19.417 257.875 20.8887 258.057 22.5229C259.293 22.4352 260.528 22.696 261.623 23.2757C262.718 23.8554 263.628 24.7306 264.249 25.8019C264.871 26.8731 265.18 28.0974 265.14 29.3354C265.101 30.5734 264.714 31.7755 264.026 32.8048C264.846 33.6883 265.443 34.7555 265.767 35.9171C266.091 37.0786 266.132 38.3008 265.886 39.4814C265.641 40.662 265.116 41.7666 264.356 42.7029C263.596 43.6392 262.623 44.3799 261.519 44.863C261.546 44.9117 261.57 44.9627 261.59 45.0153C262.929 48.4358 260.504 52.171 257.53 53.9371C254.85 55.5408 251.023 56.0483 248.395 54.1909C248.187 54.8813 247.81 55.5088 247.298 56.0159C246.785 56.523 246.154 56.8936 245.461 57.0938C244.836 57.2604 244.189 57.3323 243.543 57.3069ZM230.49 49.5219C230.605 49.5181 230.718 49.558 230.805 49.6335C230.87 49.687 230.921 49.7558 230.952 49.8337C230.984 49.9117 230.996 49.9964 230.987 50.0801C230.916 50.7705 231.025 51.4676 231.304 52.1029C231.584 52.7382 232.024 53.2899 232.581 53.7037C233.256 54.1379 234.053 54.3443 234.854 54.2924C235.38 54.2979 235.904 54.3557 236.418 54.4649C237.153 54.6504 237.873 54.8948 238.569 55.1957C239.274 55.5028 240.004 55.7473 240.752 55.9265C242.186 56.3369 243.699 56.3857 245.157 56.0686C245.795 55.9149 246.364 55.5551 246.777 55.045C247.19 54.5349 247.423 53.9029 247.44 53.2469C247.429 53.142 247.451 53.0361 247.502 52.9436C247.552 52.8511 247.63 52.7763 247.725 52.7293C247.82 52.6841 247.926 52.6697 248.03 52.6878C248.134 52.706 248.229 52.756 248.303 52.8308C250.546 55.0739 254.393 54.6578 257.012 53.0947C259.631 51.5316 261.732 48.2024 260.635 45.401C260.609 45.3434 260.571 45.2917 260.524 45.2487L260.229 45.3299C260.143 45.3511 260.052 45.3491 259.967 45.3242C259.881 45.2992 259.804 45.2522 259.742 45.1878C259.681 45.1221 259.638 45.0419 259.617 44.9549C259.596 44.8679 259.597 44.7769 259.62 44.6905C259.663 44.5327 259.755 44.3925 259.883 44.2904C260.011 44.1882 260.168 44.1293 260.331 44.1221C260.422 44.1073 260.514 44.1073 260.605 44.1221C261.606 43.7578 262.508 43.1627 263.236 42.385C263.964 41.6073 264.499 40.6689 264.797 39.6459C265.088 38.5084 265.075 37.3144 264.76 36.1834C264.444 35.0524 263.838 34.0239 263 33.2007C262.913 33.1117 262.86 32.9945 262.85 32.87C262.841 32.7455 262.876 32.6217 262.95 32.5206C263.634 31.6319 264.036 30.5582 264.104 29.4384C264.171 28.3186 263.901 27.2043 263.328 26.2399C262.755 25.2755 261.906 24.5052 260.89 24.0289C259.874 23.5526 258.739 23.3922 257.631 23.5683C257.556 23.5789 257.479 23.5727 257.406 23.5501C257.333 23.5275 257.266 23.4892 257.21 23.4378C257.154 23.3864 257.11 23.3233 257.081 23.2529C257.052 23.1824 257.039 23.1065 257.042 23.0304C257.164 21.3861 255.357 20.097 253.622 19.4474C249.804 18.0239 245.658 17.7245 241.675 18.5847C240.944 18.7049 240.25 18.9894 239.645 19.417C239.396 19.6027 239.203 19.8534 239.086 20.1416C238.97 20.4298 238.935 20.7444 238.986 21.0511C239.012 21.1406 239.012 21.2355 238.987 21.3253C238.962 21.415 238.912 21.4959 238.843 21.5586C238.775 21.6221 238.691 21.666 238.6 21.6857C238.509 21.7053 238.414 21.7 238.326 21.6703C236.93 21.0832 235.425 20.8003 233.911 20.8406C232.397 20.8808 230.909 21.2433 229.546 21.9037C226.816 23.3958 225.314 26.6438 226.115 29.2828C226.186 29.5264 226.359 29.9527 226.623 30.0339C226.725 30.0636 226.815 30.1247 226.881 30.2084C226.946 30.2922 226.984 30.3945 226.988 30.5008C226.989 30.6079 226.958 30.7128 226.898 30.8017C226.838 30.8905 226.753 30.959 226.653 30.9981C225.46 31.4415 224.423 32.2257 223.672 33.2534C222.92 34.2811 222.487 35.5069 222.427 36.7786C222.366 38.0503 222.681 39.3117 223.331 40.4062C223.981 41.5006 224.939 42.3798 226.085 42.9345C226.184 42.9803 226.266 43.0583 226.315 43.1559C226.365 43.2536 226.38 43.3651 226.359 43.4725C226.026 44.9661 226.204 46.5283 226.866 47.908C227.184 48.5292 227.696 49.0287 228.325 49.3295C228.955 49.6303 229.665 49.7158 230.348 49.5726C230.394 49.5611 230.442 49.5577 230.49 49.5625V49.5219Z" fill="#231F20"/>
<path d="M226.125 66.0968C226.125 66.0968 208.789 97.1964 206.465 102.637C204.141 108.077 214.433 120.714 218.411 117.649C222.39 114.583 226.125 66.0968 226.125 66.0968Z" fill="#FF3636"/>
<path d="M259.346 228.294C259.346 228.294 260.027 232.861 259.001 234.617C257.608 237.111 256.789 239.886 256.606 242.737C257.415 243.672 258.411 244.426 259.53 244.951C260.649 245.475 261.866 245.759 263.102 245.782C267.213 245.782 271.313 242.615 271.77 241.093C272.227 239.57 268.461 223.401 268.461 223.401L259.346 228.294Z" fill="white"/>
<path d="M263.102 246.219C261.795 246.199 260.507 245.901 259.324 245.344C258.14 244.788 257.089 243.985 256.241 242.991C256.203 242.944 256.176 242.891 256.16 242.833C256.144 242.775 256.141 242.715 256.149 242.656C256.333 239.748 257.172 236.92 258.606 234.384C259.377 233.064 259.072 229.583 258.89 228.365C258.872 228.271 258.886 228.174 258.928 228.088C258.97 228.002 259.038 227.932 259.123 227.888L268.258 222.965C268.323 222.933 268.394 222.916 268.466 222.916C268.538 222.916 268.61 222.933 268.674 222.965C268.738 222.996 268.794 223.04 268.84 223.094C268.885 223.149 268.919 223.212 268.938 223.28C269.568 226.01 272.704 239.652 272.237 241.215C271.77 242.778 267.426 246.219 263.102 246.219ZM257.093 242.555C257.857 243.394 258.783 244.069 259.816 244.538C260.85 245.008 261.967 245.262 263.102 245.285C267.03 245.285 270.948 242.24 271.323 240.931C271.587 240.037 269.913 231.694 268.146 224.061L259.844 228.548C259.986 229.654 260.341 233.237 259.397 234.851C258.071 237.218 257.284 239.848 257.093 242.555Z" fill="#231F20"/>
<path d="M231.089 117.446L250.851 123.069L255.429 64.3408C255.429 64.3408 239.067 60.3519 235.129 62.2296C231.19 64.1074 231.089 117.446 231.089 117.446Z" fill="#231F20"/>
<path d="M250.851 123.576H250.709L230.987 117.933C230.88 117.904 230.785 117.841 230.717 117.753C230.65 117.665 230.612 117.557 230.612 117.446C230.612 108.483 230.896 63.6506 234.926 61.7729C238.955 59.8951 254.901 63.6811 255.581 63.8029C255.698 63.8334 255.8 63.9039 255.871 64.0022C255.941 64.1004 255.975 64.2202 255.966 64.3408L251.389 123.069C251.382 123.143 251.36 123.215 251.323 123.28C251.287 123.345 251.236 123.401 251.176 123.444C251.086 123.524 250.971 123.571 250.851 123.576ZM231.566 117.06L250.364 122.409L254.86 64.7265C250.049 63.5897 238.316 61.2552 235.301 62.6965C233.017 63.813 231.647 91.4616 231.596 117.06H231.566Z" fill="#231F20"/>
<path d="M237.676 217.728V231.471L231.292 233.349L231.444 230.537L228.562 233.511C228.562 233.511 211.408 236.678 211.499 234.323C211.591 231.968 213.326 230.689 215.488 229.522C217.813 228.263 223.923 224.721 223.923 224.721L224.837 214.642" fill="white"/>
<path d="M214.676 235.642C213.543 235.768 212.398 235.563 211.378 235.054C211.266 234.965 211.177 234.853 211.118 234.724C211.058 234.595 211.028 234.455 211.032 234.313C211.134 231.704 213.134 230.253 215.265 229.116C217.397 227.979 222.37 225.056 223.487 224.437L224.37 214.591C224.385 214.47 224.446 214.36 224.54 214.282C224.635 214.205 224.755 214.166 224.877 214.175C224.938 214.18 224.997 214.197 225.052 214.226C225.106 214.254 225.154 214.293 225.193 214.341C225.231 214.388 225.26 214.443 225.278 214.502C225.295 214.56 225.3 214.622 225.293 214.683L224.39 224.782C224.381 224.855 224.355 224.925 224.315 224.987C224.274 225.049 224.22 225.1 224.156 225.137C224.096 225.137 218.066 228.7 215.712 229.948C213.357 231.197 212.037 232.344 211.966 234.364C212.453 235.216 219.934 234.638 228.328 233.095L231.109 230.232C231.177 230.166 231.264 230.12 231.358 230.102C231.452 230.084 231.549 230.094 231.637 230.131C231.722 230.169 231.794 230.233 231.843 230.312C231.891 230.392 231.915 230.484 231.911 230.578L231.789 232.74L237.219 231.146V217.748C237.218 217.687 237.229 217.627 237.251 217.57C237.274 217.513 237.307 217.462 237.35 217.418C237.392 217.375 237.443 217.34 237.499 217.317C237.555 217.293 237.615 217.281 237.676 217.281C237.8 217.281 237.919 217.33 238.006 217.418C238.094 217.505 238.143 217.624 238.143 217.748V231.491C238.145 231.592 238.112 231.691 238.052 231.772C237.991 231.852 237.906 231.911 237.808 231.938L231.424 233.815C231.353 233.835 231.278 233.838 231.206 233.824C231.134 233.81 231.066 233.779 231.008 233.734C230.949 233.689 230.903 233.63 230.873 233.563C230.843 233.496 230.83 233.422 230.835 233.349L230.916 231.765L228.886 233.846C228.818 233.916 228.729 233.963 228.633 233.978C224.027 234.871 219.363 235.427 214.676 235.642Z" fill="#231F20"/>
<path d="M268.329 122.988L273.617 227.35C273.617 227.35 273.11 231.166 265.051 231.643C256.992 232.12 257.804 230.172 257.804 230.172L245.197 153.62L240.031 221.625L222.674 222.752L226.125 115.568L268.329 122.988Z" fill="#231F20"/>
<path d="M262.686 232.222C259.783 232.222 258.068 231.806 257.479 230.973C257.303 230.738 257.227 230.443 257.266 230.151L245.41 157.883L240.569 221.656C240.559 221.778 240.506 221.893 240.418 221.979C240.33 222.064 240.214 222.116 240.092 222.123L222.705 223.229C222.634 223.234 222.563 223.224 222.497 223.2C222.43 223.175 222.37 223.137 222.319 223.087C222.268 223.039 222.228 222.98 222.202 222.916C222.176 222.851 222.164 222.781 222.167 222.711L225.618 115.527C225.62 115.454 225.637 115.382 225.67 115.316C225.702 115.25 225.748 115.192 225.805 115.146C225.862 115.099 225.928 115.066 225.999 115.048C226.07 115.029 226.145 115.027 226.217 115.04L268.421 122.49C268.535 122.509 268.638 122.567 268.714 122.654C268.79 122.741 268.834 122.852 268.837 122.967L274.094 227.33C274.094 227.593 273.435 231.653 265.061 232.141C264.198 232.191 263.406 232.222 262.686 232.222ZM258.271 230.354L258.362 230.446C258.677 230.75 259.955 231.461 265 231.136C272.46 230.699 273.12 227.319 273.12 227.279L267.872 123.414L226.613 116.177L223.192 222.214L239.584 221.199L244.72 153.641C244.732 153.517 244.788 153.402 244.877 153.317C244.967 153.231 245.084 153.18 245.207 153.174C245.33 153.167 245.45 153.206 245.546 153.283C245.641 153.359 245.705 153.469 245.725 153.59L258.291 230.141C258.316 230.234 258.316 230.332 258.291 230.425L258.271 230.354Z" fill="#231F20"/>
<path d="M251.866 58.7279C251.866 58.7279 245.096 129.605 248.131 133.665C251.166 137.725 269.892 140.943 271.293 133.067C273.597 120.115 272.308 73.5875 269.608 69.2129C258.707 59.5196 251.866 58.7279 251.866 58.7279Z" fill="#FF3636"/>
<path d="M226.125 66.0968C226.125 66.0968 216.442 130.468 218.269 132.336C220.096 134.203 230.023 136.731 232.764 134.853C235.504 132.975 239.249 59.0629 239.249 59.0629C234.309 60.1514 229.767 62.5859 226.125 66.0968Z" fill="#FF3636"/>
<path d="M239.777 57.784L238.945 64.6555C239.396 66.0149 240.345 67.1534 241.6 67.8424C242.856 68.5314 244.326 68.7201 245.715 68.3704C250.952 67.2641 251.013 64.2292 251.013 64.2292C251.013 64.2292 251.724 48.7403 251.724 48.6997C251.598 48.3413 251.428 48.0003 251.216 47.6847C250.435 45.9186 249.318 43.4928 249.653 41.5338C249.935 39.9189 250.741 38.4419 251.947 37.3317C251.326 37.6081 250.65 37.7375 249.971 37.7098C249.292 37.6821 248.629 37.498 248.032 37.1719C247.436 36.8458 246.923 36.3865 246.534 35.8297C246.144 35.273 245.888 34.6338 245.786 33.9619C245.786 34.6623 245.167 35.1799 244.578 35.5656C243.709 36.2418 242.634 36.6 241.533 36.5806C240.092 36.4182 239.016 35.1901 237.666 34.6623C237.875 35.1252 237.91 35.6479 237.764 36.1345C237.619 36.621 237.303 37.0389 236.874 37.3114C235.994 37.8326 234.944 37.9858 233.951 37.7377C234.611 37.8697 234.053 45.2081 234.043 45.8577C233.949 48.1324 234.004 50.4108 234.205 52.6785C234.692 56.7284 239.777 57.784 239.777 57.784Z" fill="white"/>
<path d="M244.182 69.0403C239.828 69.0403 238.448 64.8585 238.437 64.8078C238.422 64.7375 238.422 64.6649 238.437 64.5946L239.209 58.1696C237.879 57.7839 234.134 56.3832 233.687 52.6278C233.493 50.5123 233.436 48.3866 233.515 46.2637V45.7359C233.515 45.6344 233.515 45.3502 233.515 44.9442C233.809 40.0215 233.718 38.4787 233.576 38.0727C233.5 38.0162 233.443 37.9392 233.411 37.851C233.378 37.7627 233.372 37.667 233.393 37.5753C233.404 37.5097 233.428 37.4471 233.464 37.3912C233.5 37.3353 233.547 37.2873 233.602 37.2502C233.657 37.2132 233.719 37.1878 233.784 37.1756C233.85 37.1634 233.917 37.1647 233.982 37.1795C234.844 37.3895 235.754 37.2663 236.529 36.8344C236.859 36.6266 237.104 36.3079 237.219 35.9356C237.334 35.5634 237.313 35.1622 237.159 34.8044C237.107 34.7129 237.085 34.6078 237.096 34.5035C237.107 34.3991 237.15 34.3007 237.219 34.2217C237.288 34.1427 237.379 34.087 237.481 34.0623C237.583 34.0376 237.69 34.0451 237.788 34.0837C238.359 34.3315 238.903 34.6376 239.412 34.9972C240.032 35.4935 240.758 35.8407 241.533 36.0122C242.512 36.0197 243.465 35.702 244.243 35.1088C244.903 34.6825 245.258 34.2969 245.258 33.9315C245.26 33.8027 245.31 33.6793 245.399 33.5855C245.487 33.4916 245.607 33.434 245.735 33.424C245.863 33.4123 245.989 33.4501 246.09 33.5294C246.19 33.6088 246.256 33.7237 246.273 33.8503C246.355 34.4501 246.576 35.0226 246.917 35.5227C247.258 36.0229 247.711 36.4369 248.239 36.7321C248.768 37.0274 249.357 37.1958 249.962 37.2241C250.567 37.2524 251.17 37.1399 251.724 36.8953C251.833 36.8443 251.957 36.8347 252.073 36.8683C252.189 36.9019 252.288 36.9764 252.353 37.078C252.418 37.1784 252.446 37.2987 252.431 37.4176C252.416 37.5365 252.36 37.6463 252.272 37.7276C251.142 38.7587 250.388 40.1375 250.13 41.6455C249.836 43.3811 250.841 45.7055 251.572 47.3092L251.663 47.502C251.705 47.5928 251.752 47.681 251.805 47.7659C252.025 48.0641 252.164 48.4135 252.211 48.7809C252.211 48.7809 252.211 48.7809 251.501 64.3409C251.501 64.4728 251.369 67.7919 245.796 68.949C245.263 69.0354 244.722 69.066 244.182 69.0403ZM239.432 64.5946C239.845 65.8098 240.702 66.8236 241.832 67.4319C242.962 68.0402 244.281 68.1978 245.522 67.8731C250.252 66.8581 250.414 64.3206 250.425 64.2089C250.435 64.0973 251.125 48.9027 251.135 48.6794C251.135 48.6794 250.963 48.3749 250.881 48.2328C250.8 48.1138 250.729 47.9882 250.668 47.8573L250.587 47.6746C249.805 45.8882 248.73 43.4623 249.075 41.4222C249.269 40.2501 249.731 39.1386 250.425 38.1742C249.481 38.231 248.54 38.0273 247.704 37.5855C246.783 37.0622 246.048 36.2637 245.603 35.3017C245.352 35.5522 245.072 35.7735 244.771 35.9615C243.795 36.6717 242.607 37.0295 241.401 36.9765C240.471 36.8034 239.595 36.414 238.843 35.8397L238.295 35.4844C238.266 35.9085 238.141 36.3205 237.93 36.6896C237.719 37.0586 237.428 37.3753 237.077 37.6159C236.348 38.0829 235.484 38.2969 234.621 38.2249C234.755 40.4676 234.718 42.7173 234.509 44.9544C234.509 45.3401 234.509 45.604 234.509 45.7055V46.2231C234.435 48.3054 234.493 50.3903 234.682 52.4654C235.118 56.2107 239.757 57.2257 239.848 57.2359C239.971 57.2648 240.079 57.3375 240.152 57.4402C240.225 57.543 240.257 57.6688 240.244 57.7941L239.432 64.5946Z" fill="#231F20"/>
<path d="M238.823 45.1776C238.823 45.1776 235.778 49.1463 236.418 49.9177C237.057 50.6891 238.854 50.344 238.854 50.344" fill="white"/>
<path d="M237.96 50.9226C237.611 50.9481 237.259 50.8968 236.932 50.7723C236.604 50.6478 236.307 50.4532 236.062 50.202C235.372 49.3088 236.996 46.8017 238.468 44.8529C238.549 44.7452 238.669 44.674 238.802 44.655C238.935 44.636 239.071 44.6706 239.178 44.7514C239.233 44.7905 239.279 44.8402 239.314 44.8976C239.348 44.9549 239.371 45.0186 239.381 45.085C239.39 45.1514 239.386 45.219 239.369 45.2837C239.351 45.3485 239.321 45.4091 239.28 45.4619C237.93 47.2585 236.813 49.2073 236.895 49.6437C237.138 49.9381 238.184 49.9381 238.803 49.8264C238.868 49.8131 238.935 49.8127 239.001 49.8254C239.066 49.8381 239.129 49.8635 239.184 49.9003C239.24 49.937 239.288 49.9844 239.325 50.0396C239.362 50.0949 239.388 50.1569 239.402 50.2222C239.415 50.2883 239.415 50.3563 239.402 50.4223C239.388 50.4883 239.362 50.551 239.324 50.6067C239.286 50.6625 239.238 50.7101 239.181 50.7469C239.125 50.7837 239.062 50.8089 238.996 50.8211C238.654 50.8868 238.308 50.9208 237.96 50.9226Z" fill="#231F20"/>
<path d="M239.777 57.7839C239.777 57.7839 243.837 57.7839 245.695 56.6877C245.695 56.6877 244.111 61.4278 239.727 62.595L239.777 57.7839Z" fill="#231F20"/>
<path d="M239.727 63.1025C239.613 63.1048 239.502 63.069 239.412 63.001C239.349 62.9538 239.299 62.8923 239.266 62.8216C239.232 62.7509 239.216 62.6732 239.219 62.595L239.27 57.7839C239.27 57.6493 239.323 57.5202 239.418 57.4251C239.514 57.3299 239.643 57.2764 239.777 57.2764C239.99 57.2764 243.726 57.2764 245.431 56.2614C245.516 56.2025 245.617 56.1709 245.72 56.1709C245.824 56.1709 245.924 56.2025 246.009 56.2614C246.088 56.3283 246.145 56.4169 246.174 56.5162C246.203 56.6154 246.202 56.7209 246.172 56.8197C246.101 57.0227 244.446 61.8236 239.848 63.0619L239.727 63.1025ZM240.275 58.2914V61.9048C242.224 61.0676 243.811 59.5635 244.751 57.6621C243.292 58.0652 241.788 58.2868 240.275 58.3219V58.2914Z" fill="#231F20"/>
<path d="M273.719 116.014H273.668C273.008 115.933 257.58 114.147 252.678 111.396C252.619 111.365 252.567 111.321 252.525 111.269C252.483 111.217 252.453 111.157 252.435 111.092C252.417 111.028 252.412 110.96 252.42 110.894C252.429 110.828 252.451 110.764 252.485 110.706C252.553 110.591 252.663 110.507 252.791 110.471C252.92 110.435 253.058 110.45 253.175 110.513C257.895 113.162 273.628 114.979 273.78 114.999C273.914 115.008 274.04 115.069 274.13 115.17C274.219 115.271 274.265 115.403 274.257 115.537C274.249 115.672 274.188 115.798 274.087 115.887C273.986 115.977 273.853 116.023 273.719 116.014Z" fill="#231F20"/>
<path d="M269.608 69.2129C269.608 69.2129 300.221 112.858 287.107 124.145C275.089 134.467 248.537 117.324 248.537 117.324L250.14 102.83C250.14 102.83 271.161 114.533 271.506 109.082C272.004 101.064 261.701 90.1117 261.701 90.1117C260.775 88.3359 260.215 86.3921 260.055 84.3956C259.894 82.3992 260.137 80.3909 260.767 78.49C261.367 76.3371 262.487 74.3647 264.029 72.7469C265.57 71.129 267.487 69.9153 269.608 69.2129Z" fill="#FF3636"/>
<path d="M221.852 104.393C221.786 104.383 221.723 104.36 221.666 104.326C221.609 104.291 221.559 104.246 221.519 104.192C221.48 104.138 221.451 104.077 221.435 104.012C221.419 103.948 221.416 103.88 221.426 103.814C222.37 97.4807 226.907 73.2932 226.958 73.0496C226.985 72.9192 227.061 72.8042 227.171 72.7286C227.28 72.653 227.415 72.6225 227.546 72.6436C227.679 72.6706 227.796 72.7484 227.871 72.8603C227.947 72.9722 227.976 73.1094 227.953 73.2424C227.902 73.486 223.365 97.6024 222.431 103.966C222.408 104.099 222.336 104.217 222.228 104.296C222.12 104.376 221.985 104.41 221.852 104.393Z" fill="#231F20"/>
<path d="M217.579 123.525H248.1C248.669 123.515 249.228 123.378 249.737 123.125C250.246 122.872 250.693 122.509 251.044 122.062C251.396 121.615 251.644 121.096 251.77 120.542C251.897 119.987 251.898 119.412 251.775 118.856L245.289 87.4828C245.103 86.5828 244.617 85.7725 243.911 85.1844C243.205 84.5962 242.32 84.2651 241.401 84.245H211.327C210.724 84.2547 210.131 84.3984 209.591 84.6657C209.051 84.9331 208.577 85.3173 208.204 85.7906C207.831 86.2639 207.567 86.8144 207.433 87.402C207.3 87.9897 207.298 88.5998 207.429 89.188L213.905 120.46C214.069 121.317 214.525 122.09 215.195 122.649C215.864 123.208 216.707 123.518 217.579 123.525Z" fill="white"/>
<path d="M248.1 123.982H217.579C216.602 123.969 215.659 123.621 214.907 122.997C214.156 122.373 213.641 121.509 213.448 120.552L206.983 89.2794C206.84 88.606 206.849 87.909 207.011 87.2398C207.172 86.5706 207.482 85.9461 207.916 85.4122C208.327 84.9032 208.847 84.4923 209.437 84.2096C210.027 83.9269 210.673 83.7794 211.327 83.7781H241.401C242.429 83.7929 243.421 84.1596 244.212 84.8171C245.002 85.4747 245.544 86.3833 245.745 87.3915L252.231 118.755C252.367 119.395 252.359 120.056 252.206 120.692C252.053 121.328 251.76 121.921 251.348 122.429C250.956 122.913 250.461 123.303 249.899 123.571C249.337 123.84 248.723 123.98 248.1 123.982ZM211.327 84.7119C210.811 84.7119 210.301 84.8277 209.835 85.0508C209.37 85.2739 208.96 85.5986 208.637 86.0009C208.297 86.4227 208.053 86.9139 207.923 87.44C207.794 87.9661 207.781 88.5143 207.886 89.0459L214.362 120.328C214.508 121.078 214.908 121.754 215.494 122.243C216.079 122.733 216.816 123.007 217.579 123.018H248.1C248.586 123.015 249.064 122.905 249.501 122.694C249.938 122.483 250.323 122.178 250.628 121.8C250.953 121.401 251.186 120.934 251.307 120.433C251.428 119.933 251.435 119.411 251.328 118.907L244.832 87.5336C244.674 86.7359 244.247 86.0165 243.623 85.4956C242.999 84.9746 242.214 84.6837 241.401 84.6713L211.327 84.7119Z" fill="#231F20"/>
<path d="M254.383 107.773C254.559 106.676 254.476 105.553 254.14 104.494C253.807 103.783 253.35 103.137 252.79 102.586C251.837 101.571 250.82 100.618 249.745 99.7339C248.73 98.9422 247.583 98.1708 246.365 98.4347C246.74 100.253 247.769 101.871 249.257 102.982C248.771 102.401 248.125 101.974 247.4 101.754C246.913 101.602 246.253 101.622 246.05 102.109C246.003 102.266 245.989 102.43 246.008 102.593C246.027 102.755 246.08 102.912 246.162 103.053C246.73 104.31 247.602 105.405 248.699 106.24L247.522 105.489C247.221 105.268 246.874 105.119 246.507 105.053C246.326 105.023 246.141 105.052 245.978 105.137C245.815 105.221 245.684 105.355 245.603 105.519C245.529 105.794 245.558 106.087 245.685 106.342C245.991 107.073 246.498 107.702 247.146 108.158C246.722 107.796 246.212 107.547 245.664 107.438C245.388 107.396 245.106 107.455 244.869 107.604C244.632 107.754 244.457 107.982 244.375 108.25C244.345 108.556 244.409 108.864 244.558 109.133C245.431 110.868 247.512 111.061 248.527 112.523C249.288 113.609 248.933 114.776 250.475 115.436C254.332 117.03 254.17 110.087 254.383 107.773Z" fill="white"/>
<path d="M251.592 116.177C251.157 116.17 250.729 116.073 250.333 115.893C249.904 115.719 249.524 115.443 249.225 115.09C248.926 114.736 248.718 114.315 248.618 113.863C248.515 113.504 248.361 113.163 248.161 112.848C247.703 112.294 247.132 111.845 246.486 111.528C245.518 111.068 244.709 110.329 244.162 109.407C243.946 109.04 243.864 108.61 243.929 108.189C244.018 107.849 244.214 107.547 244.488 107.328C244.763 107.109 245.1 106.983 245.451 106.971C245.382 106.843 245.321 106.711 245.268 106.575C245.085 106.202 245.052 105.773 245.177 105.377C245.282 105.135 245.457 104.929 245.679 104.786C245.901 104.643 246.161 104.57 246.426 104.576C246.154 104.171 245.92 103.743 245.725 103.297C245.609 103.094 245.538 102.868 245.517 102.635C245.496 102.402 245.525 102.167 245.603 101.947C245.72 101.704 245.908 101.504 246.142 101.371C246.376 101.239 246.645 101.181 246.913 101.206C246.428 100.404 246.085 99.5251 245.898 98.6073C245.869 98.541 245.854 98.4694 245.854 98.3971C245.854 98.3248 245.87 98.2533 245.9 98.1873C245.929 98.1213 245.972 98.0623 246.026 98.014C246.08 97.9657 246.144 97.9292 246.212 97.9069C247.664 97.6024 249.004 98.4957 250.008 99.3077C251.109 100.203 252.146 101.173 253.114 102.211C253.717 102.794 254.209 103.482 254.566 104.241C254.94 105.368 255.034 106.57 254.84 107.742C254.84 108.037 254.84 108.402 254.769 108.818C254.647 111.153 254.444 114.675 252.739 115.761C252.405 116.007 252.006 116.152 251.592 116.177ZM245.583 107.925C245.445 107.916 245.307 107.95 245.189 108.023C245.07 108.096 244.978 108.203 244.923 108.331C244.914 108.53 244.963 108.728 245.065 108.899C245.529 109.643 246.199 110.235 246.994 110.605C247.785 110.981 248.479 111.533 249.024 112.218C249.286 112.619 249.484 113.057 249.613 113.518C249.661 113.837 249.792 114.139 249.994 114.391C250.195 114.644 250.459 114.84 250.76 114.959C250.985 115.084 251.238 115.15 251.495 115.15C251.753 115.15 252.006 115.084 252.231 114.959C253.531 114.147 253.723 110.686 253.835 108.869C253.835 108.432 253.835 108.047 253.906 107.752C254.074 106.735 254.001 105.692 253.693 104.707C253.389 104.05 252.965 103.455 252.444 102.951C251.492 101.952 250.475 101.016 249.399 100.15C248.732 99.5162 247.898 99.0865 246.994 98.9118C247.319 99.9823 247.889 100.962 248.659 101.774C249.04 102.007 249.382 102.298 249.674 102.637C249.758 102.73 249.804 102.851 249.804 102.977C249.804 103.102 249.758 103.224 249.674 103.317C249.59 103.409 249.474 103.466 249.35 103.478C249.226 103.489 249.103 103.453 249.004 103.378C248.665 103.132 248.346 102.861 248.05 102.566C247.811 102.42 247.555 102.304 247.288 102.221C246.963 102.129 246.608 102.16 246.557 102.292C246.528 102.479 246.568 102.67 246.669 102.83C247.194 104.013 248.011 105.043 249.044 105.824C249.098 105.861 249.143 105.909 249.178 105.964C249.212 106.019 249.236 106.081 249.246 106.145C249.256 106.21 249.254 106.276 249.238 106.339C249.223 106.402 249.195 106.462 249.156 106.514C249.082 106.623 248.968 106.698 248.839 106.725C248.711 106.751 248.577 106.727 248.466 106.656L247.288 105.915C247.061 105.739 246.798 105.614 246.517 105.55C246.447 105.534 246.375 105.539 246.308 105.565C246.241 105.59 246.183 105.634 246.141 105.692C246.12 105.846 246.149 106.002 246.223 106.139C246.468 106.736 246.871 107.255 247.39 107.641L247.512 107.732C247.566 107.77 247.613 107.818 247.648 107.873C247.684 107.929 247.708 107.991 247.72 108.057C247.731 108.122 247.729 108.189 247.714 108.253C247.7 108.318 247.672 108.379 247.633 108.432C247.557 108.542 247.441 108.617 247.31 108.642C247.179 108.667 247.044 108.639 246.933 108.564L246.801 108.473C246.478 108.206 246.095 108.021 245.685 107.935L245.583 107.925Z" fill="#231F20"/>
<path d="M207.906 105.591C208.058 103.489 208.688 101.165 210.464 100.109C211.013 99.7938 211.633 99.6218 212.267 99.6094C212.9 99.5969 213.526 99.7445 214.088 100.038C214.191 100.079 214.283 100.142 214.359 100.222C214.434 100.303 214.491 100.4 214.524 100.505C214.595 100.84 214.291 101.114 214.017 101.287C213.429 101.655 212.789 101.933 212.118 102.109C212.665 102.064 213.211 102.191 213.682 102.471C214.154 102.751 214.526 103.171 214.747 103.672C214.086 104.45 213.161 104.956 212.149 105.093C212.485 105.004 212.84 105.018 213.168 105.134C213.496 105.25 213.781 105.462 213.986 105.743C214.646 106.697 214.118 106.961 213.397 107.529C213.714 107.462 214.044 107.494 214.341 107.621C214.492 107.689 214.619 107.801 214.706 107.942C214.793 108.083 214.835 108.247 214.829 108.412C214.778 109.021 214.037 109.214 213.519 109.519C213.102 109.772 212.786 110.164 212.626 110.625C212.567 110.89 212.482 111.148 212.372 111.396C211.357 113.213 209.104 111.701 208.546 110.381C207.974 108.853 207.755 107.215 207.906 105.591Z" fill="white"/>
<path d="M211.053 112.746H210.931C210.318 112.66 209.737 112.422 209.241 112.053C208.744 111.684 208.348 111.197 208.089 110.635C207.482 109.016 207.246 107.282 207.399 105.56C207.541 103.53 208.14 100.901 210.21 99.673C210.833 99.314 211.537 99.1183 212.255 99.1041C212.974 99.0899 213.685 99.2577 214.321 99.5918C214.492 99.6654 214.643 99.7767 214.765 99.9174C214.886 100.058 214.974 100.224 215.021 100.404C215.082 100.688 215.021 101.226 214.291 101.713L213.844 101.977C214.455 102.307 214.937 102.833 215.214 103.469C215.25 103.556 215.261 103.651 215.247 103.744C215.233 103.837 215.193 103.925 215.133 103.997C214.805 104.399 214.41 104.742 213.966 105.012C214.136 105.142 214.284 105.3 214.402 105.479C214.95 106.26 214.859 106.788 214.565 107.184C214.807 107.297 215.011 107.481 215.148 107.71C215.286 107.94 215.351 108.206 215.336 108.473C215.275 109.224 214.605 109.559 214.128 109.793L213.783 109.975C213.466 110.162 213.228 110.458 213.113 110.808C213.084 110.883 213.06 110.962 213.042 111.041C212.996 111.257 212.921 111.465 212.819 111.66C212.649 111.983 212.396 112.255 212.085 112.446C211.774 112.637 211.418 112.741 211.053 112.746ZM208.414 105.641C208.27 107.199 208.474 108.77 209.013 110.239C209.201 110.627 209.478 110.964 209.822 111.224C210.167 111.483 210.567 111.657 210.992 111.731C211.188 111.737 211.382 111.685 211.55 111.582C211.717 111.479 211.851 111.33 211.936 111.153C211.992 111.029 212.036 110.899 212.068 110.767C212.068 110.665 212.119 110.574 212.149 110.473C212.344 109.894 212.74 109.404 213.265 109.092L213.671 108.869C214.057 108.686 214.311 108.544 214.331 108.372C214.352 108.199 214.24 108.148 214.118 108.087C213.914 108.009 213.692 107.992 213.479 108.037C213.369 108.052 213.257 108.032 213.161 107.978C213.064 107.925 212.987 107.841 212.942 107.74C212.898 107.639 212.887 107.526 212.912 107.418C212.938 107.31 212.998 107.214 213.083 107.143L213.276 106.991C213.895 106.514 213.895 106.514 213.57 106.047C213.245 105.58 212.91 105.519 212.22 105.611C212.153 105.621 212.085 105.617 212.019 105.6C211.954 105.582 211.893 105.552 211.84 105.51C211.786 105.468 211.742 105.416 211.71 105.356C211.678 105.297 211.658 105.232 211.652 105.164C211.634 105.031 211.671 104.896 211.752 104.79C211.834 104.683 211.955 104.613 212.088 104.596C212.857 104.488 213.57 104.131 214.118 103.581C213.925 103.242 213.638 102.967 213.293 102.787C212.947 102.607 212.557 102.53 212.169 102.566C212.042 102.581 211.914 102.548 211.81 102.472C211.707 102.397 211.636 102.285 211.611 102.16C211.586 102.034 211.61 101.903 211.678 101.793C211.745 101.684 211.852 101.605 211.976 101.571C212.596 101.406 213.188 101.15 213.732 100.81C213.935 100.688 214.006 100.587 214.017 100.546L213.834 100.434C213.352 100.179 212.813 100.05 212.268 100.061C211.723 100.071 211.189 100.221 210.718 100.495C209.023 101.51 208.525 103.814 208.404 105.57L208.414 105.641Z" fill="#231F20"/>
<path d="M234.347 47.0453C233.604 47.0453 232.878 46.825 232.261 46.4124C231.643 45.9997 231.162 45.4132 230.877 44.727C230.593 44.0407 230.519 43.2856 230.664 42.5571C230.809 41.8286 231.166 41.1595 231.691 40.6343C232.217 40.109 232.886 39.7514 233.614 39.6065C234.343 39.4616 235.098 39.5359 235.784 39.8202C236.47 40.1044 237.057 40.5858 237.47 41.2034C237.882 41.8209 238.103 42.547 238.103 43.2898C238.1 44.285 237.703 45.2387 237 45.9424C236.296 46.6461 235.342 47.0426 234.347 47.0453ZM234.347 40.5493C233.805 40.5493 233.275 40.71 232.824 41.0112C232.374 41.3123 232.023 41.7403 231.815 42.2411C231.608 42.7418 231.553 43.2928 231.659 43.8244C231.765 44.3561 232.026 44.8444 232.409 45.2276C232.792 45.6109 233.281 45.8719 233.812 45.9776C234.344 46.0834 234.895 46.0291 235.396 45.8217C235.896 45.6143 236.325 45.263 236.626 44.8123C236.927 44.3617 237.088 43.8318 237.088 43.2898C237.085 42.5638 236.795 41.8683 236.282 41.3549C235.769 40.8416 235.073 40.552 234.347 40.5493Z" fill="#231F20"/>
<path d="M242.711 47.0453C241.968 47.0453 241.242 46.825 240.624 46.4124C240.007 45.9997 239.525 45.4132 239.241 44.727C238.957 44.0407 238.882 43.2856 239.027 42.5571C239.172 41.8286 239.53 41.1595 240.055 40.6343C240.58 40.109 241.249 39.7514 241.978 39.6065C242.706 39.4616 243.462 39.5359 244.148 39.8202C244.834 40.1044 245.421 40.5858 245.833 41.2034C246.246 41.8209 246.466 42.547 246.466 43.2898C246.466 44.2858 246.07 45.2411 245.366 45.9453C244.662 46.6496 243.707 47.0453 242.711 47.0453ZM242.711 40.5493C242.169 40.5493 241.639 40.71 241.188 41.0112C240.737 41.3123 240.386 41.7403 240.179 42.2411C239.971 42.7418 239.917 43.2928 240.023 43.8244C240.128 44.3561 240.389 44.8444 240.773 45.2276C241.156 45.6109 241.644 45.8719 242.176 45.9776C242.708 46.0834 243.259 46.0291 243.759 45.8217C244.26 45.6143 244.688 45.263 244.989 44.8123C245.29 44.3617 245.451 43.8318 245.451 43.2898C245.451 42.563 245.162 41.8659 244.648 41.352C244.134 40.838 243.437 40.5493 242.711 40.5493Z" fill="#231F20"/>
<path d="M239.351 53.2469C238.051 53.221 236.775 52.9018 235.616 52.3131C235.501 52.2452 235.416 52.1354 235.381 52.0068C235.345 51.8782 235.36 51.7406 235.423 51.6229C235.489 51.506 235.599 51.42 235.728 51.3839C235.858 51.3477 235.996 51.3643 236.113 51.4301C236.306 51.5316 240.823 54.0082 243.583 49.8264C243.657 49.7133 243.773 49.6343 243.906 49.6067C244.038 49.5791 244.176 49.6052 244.289 49.6792C244.402 49.7532 244.481 49.8691 244.509 50.0014C244.536 50.1337 244.51 50.2716 244.436 50.3846C243.912 51.2639 243.167 51.9907 242.275 52.4929C241.383 52.995 240.375 53.255 239.351 53.2469Z" fill="#231F20"/>
<path d="M239.463 43.7972H237.595C237.46 43.7972 237.331 43.7438 237.236 43.6486C237.141 43.5534 237.088 43.4243 237.088 43.2897C237.088 43.1551 237.141 43.026 237.236 42.9309C237.331 42.8357 237.46 42.7822 237.595 42.7822H239.463C239.597 42.7822 239.726 42.8357 239.821 42.9309C239.917 43.026 239.97 43.1551 239.97 43.2897C239.968 43.4235 239.913 43.5511 239.819 43.6457C239.724 43.7403 239.596 43.7946 239.463 43.7972Z" fill="#231F20"/>
<path d="M253.449 45.8273C253.406 45.8369 253.361 45.8369 253.317 45.8273L245.827 43.7973C245.692 43.7623 245.577 43.6752 245.506 43.5553C245.436 43.4354 245.416 43.2924 245.451 43.1578C245.486 43.0232 245.573 42.908 245.693 42.8376C245.813 42.7672 245.956 42.7473 246.091 42.7823L253.581 44.8123C253.71 44.8479 253.82 44.9329 253.886 45.0488C253.953 45.1647 253.971 45.3022 253.936 45.4314C253.913 45.5433 253.852 45.6438 253.763 45.7159C253.674 45.788 253.564 45.8273 253.449 45.8273Z" fill="#231F20"/>
<path d="M249.257 46.5378C249.458 45.8145 249.885 45.1744 250.475 44.7108C250.926 44.3306 251.452 44.0515 252.019 43.8922C252.587 43.7328 253.182 43.697 253.764 43.7871C254.344 44.0323 254.825 44.4666 255.127 45.0195C255.429 45.5723 255.535 46.2112 255.429 46.8321C255.345 47.6763 255.035 48.4822 254.531 49.1646C254.027 49.8471 253.348 50.3808 252.566 50.7094C252.053 50.8931 251.508 50.9715 250.964 50.9401C250.42 50.9088 249.888 50.7682 249.399 50.5267" fill="white"/>
<path d="M251.216 51.4504C250.512 51.4493 249.817 51.2861 249.186 50.9733C249.126 50.9443 249.073 50.9034 249.029 50.8531C248.985 50.8028 248.951 50.7442 248.93 50.6807C248.909 50.6173 248.902 50.5502 248.907 50.4837C248.913 50.4171 248.932 50.3524 248.963 50.2933C248.992 50.2332 249.033 50.1795 249.083 50.1353C249.133 50.091 249.191 50.0571 249.255 50.0354C249.318 50.0137 249.385 50.0047 249.451 50.0089C249.518 50.0131 249.583 50.0304 249.643 50.0598C250.071 50.2704 250.536 50.3941 251.011 50.4237C251.487 50.4533 251.964 50.3883 252.414 50.2324C253.105 49.9314 253.704 49.4525 254.15 48.8444C254.596 48.2364 254.872 47.521 254.952 46.7712C255.041 46.2688 254.96 45.751 254.723 45.2991C254.486 44.8472 254.106 44.4868 253.642 44.2743C253.136 44.2116 252.622 44.254 252.133 44.3989C251.644 44.5439 251.19 44.7883 250.8 45.1168C250.305 45.5134 249.95 46.0574 249.785 46.6697C249.767 46.7364 249.736 46.7988 249.694 46.8535C249.652 46.9082 249.6 46.9541 249.54 46.9885C249.48 47.0229 249.414 47.0451 249.345 47.054C249.277 47.0629 249.207 47.0582 249.141 47.0402C249.074 47.0222 249.012 46.9913 248.957 46.9492C248.902 46.907 248.856 46.8545 248.822 46.7947C248.788 46.7348 248.765 46.6688 248.756 46.6003C248.748 46.5319 248.752 46.4623 248.77 46.3957C249.007 45.5888 249.494 44.8779 250.161 44.3657C250.674 43.9343 251.274 43.62 251.921 43.4447C252.568 43.2694 253.246 43.2373 253.906 43.3507C254.6 43.6272 255.179 44.1316 255.548 44.781C255.917 45.4304 256.054 46.186 255.936 46.9235C255.845 47.8597 255.501 48.7535 254.941 49.5096C254.382 50.2657 253.628 50.8558 252.759 51.2169C252.263 51.3849 251.74 51.4639 251.216 51.4504Z" fill="#231F20"/>
<path d="M268.37 110.706C263.691 110.706 256.839 106.92 255.855 106.362C255.797 106.329 255.746 106.284 255.705 106.231C255.664 106.178 255.634 106.118 255.617 106.053C255.6 105.989 255.595 105.921 255.604 105.855C255.612 105.789 255.634 105.725 255.667 105.667C255.7 105.609 255.745 105.558 255.798 105.517C255.851 105.476 255.911 105.446 255.976 105.429C256.04 105.411 256.108 105.407 256.174 105.415C256.24 105.424 256.304 105.446 256.362 105.479C259.641 107.346 268.695 111.569 271.08 108.757C273.465 105.946 266.32 92.0301 263.356 86.9145C263.304 86.8 263.297 86.6704 263.335 86.5508C263.373 86.4311 263.454 86.3299 263.563 86.2668C263.672 86.2036 263.8 86.183 263.923 86.2089C264.046 86.2348 264.155 86.3054 264.229 86.407C265.355 88.3558 275.18 105.499 271.861 109.407C271.41 109.866 270.863 110.22 270.26 110.445C269.657 110.669 269.011 110.758 268.37 110.706Z" fill="#231F20"/>
<path d="M271.943 127.961H271.872C264.371 126.834 254.617 120.856 254.19 120.633C254.134 120.598 254.084 120.551 254.045 120.497C254.007 120.443 253.979 120.381 253.964 120.316C253.949 120.251 253.946 120.184 253.958 120.118C253.969 120.052 253.992 119.989 254.028 119.932C254.062 119.875 254.108 119.824 254.162 119.785C254.216 119.745 254.278 119.717 254.343 119.702C254.409 119.686 254.477 119.685 254.543 119.696C254.609 119.708 254.672 119.733 254.728 119.77C254.82 119.821 264.726 125.86 271.983 126.966C272.049 126.974 272.113 126.995 272.171 127.028C272.229 127.061 272.279 127.105 272.319 127.158C272.359 127.212 272.388 127.272 272.403 127.337C272.419 127.402 272.421 127.469 272.41 127.535C272.391 127.648 272.335 127.752 272.251 127.83C272.166 127.907 272.057 127.953 271.943 127.961Z" fill="#231F20"/>
<path d="M7.28012 141.34L0.457214 170.338L35.7197 178.635L42.5426 149.637L7.28012 141.34Z" fill="white"/>
<path d="M35.7318 179.107H35.6202L0.35906 170.804C0.299252 170.791 0.242686 170.766 0.192726 170.731C0.142766 170.695 0.100434 170.65 0.0682403 170.598C0.0360469 170.546 0.0146539 170.488 0.00532935 170.428C-0.00399515 170.367 -0.00106235 170.305 0.0139599 170.246L6.83476 141.247C6.86369 141.128 6.93852 141.025 7.04302 140.96C7.14752 140.896 7.27327 140.875 7.39301 140.902L42.6541 149.205C42.7141 149.218 42.771 149.242 42.8215 149.277C42.872 149.312 42.9151 149.356 42.9485 149.408C43.011 149.515 43.0292 149.643 42.9992 149.763L36.1784 178.762C36.1491 178.879 36.0766 178.98 35.9754 179.046C35.9017 179.089 35.8172 179.11 35.7318 179.107ZM1.01881 169.972L35.3867 178.092L41.9944 149.997L7.63661 141.877L1.01881 169.972Z" fill="#231F20"/>
<path d="M28.7182 135.746C28.7182 135.746 28.1295 150.717 26.5765 149.824C24.5465 148.637 25.389 145.186 25.389 145.186L18.5073 143.734C18.5073 143.734 21.4305 133.797 21.6233 133.462C21.8162 133.127 28.7182 135.746 28.7182 135.746Z" fill="white"/>
<path d="M26.7085 150.322C26.5797 150.321 26.4534 150.286 26.3431 150.22C24.4755 149.144 24.6683 146.607 24.8409 145.551L18.4159 144.191C18.3529 144.176 18.2934 144.148 18.2412 144.11C18.1889 144.072 18.1448 144.023 18.1114 143.968C18.0661 143.85 18.0661 143.72 18.1114 143.602C19.2076 139.867 21.0854 133.564 21.2782 133.229C21.4711 132.894 21.6639 132.549 28.9313 135.32C29.0239 135.351 29.1038 135.411 29.1588 135.492C29.2138 135.572 29.2409 135.669 29.2358 135.766C29.0734 139.826 28.5456 149.438 27.1043 150.23C26.9848 150.3 26.8466 150.332 26.7085 150.322ZM19.096 143.379L25.4803 144.729C25.6051 144.759 25.7139 144.835 25.7848 144.942C25.8295 145.056 25.8295 145.183 25.7848 145.297C25.7848 145.297 25.0642 148.261 26.6273 149.357C27.2972 148.342 27.9468 141.887 28.1904 136.081C25.5818 135.066 22.7703 134.122 21.8974 133.939C21.5624 135.066 20.1313 139.877 19.096 143.379Z" fill="#231F20"/>
<path d="M39.3452 219.879C39.3452 219.879 38.7768 229.258 38.8073 232.811C38.8377 236.363 38.8073 239.702 42.9789 238.901C45.2525 238.484 57.737 235.328 56.5901 233.003C55.4431 230.679 47.3333 230.08 47.3333 230.08L48.0641 219.362" fill="white"/>
<path d="M41.8726 239.51C41.1146 239.545 40.369 239.307 39.7715 238.84C38.3911 237.703 38.3708 235.399 38.3505 232.963V232.821C38.3505 229.288 38.8783 219.95 38.8783 219.849C38.8822 219.789 38.8979 219.73 38.9245 219.676C38.9511 219.622 38.9881 219.574 39.0334 219.535C39.0786 219.495 39.1313 219.465 39.1883 219.445C39.2453 219.426 39.3055 219.419 39.3655 219.423C39.4269 219.424 39.4874 219.438 39.5432 219.463C39.599 219.489 39.6489 219.525 39.6899 219.571C39.7308 219.617 39.7619 219.671 39.7812 219.729C39.8005 219.787 39.8076 219.849 39.802 219.91C39.802 220.001 39.2437 229.309 39.2742 232.811V232.953C39.2742 235.165 39.2742 237.266 40.3602 238.129C40.732 238.369 41.1516 238.525 41.5898 238.587C42.028 238.648 42.4744 238.613 42.8977 238.484C45.8412 237.936 55.2503 235.318 56.1536 233.521C56.1787 233.48 56.192 233.432 56.192 233.384C56.192 233.336 56.1787 233.288 56.1536 233.247C55.4025 231.735 50.3174 230.811 47.2825 230.588C47.1604 230.577 47.0473 230.519 46.9675 230.426C46.8878 230.333 46.8478 230.213 46.8562 230.09L47.587 219.372C47.5973 219.251 47.6535 219.138 47.744 219.057C47.8346 218.976 47.9527 218.932 48.0742 218.935C48.1972 218.946 48.3113 219.003 48.3927 219.096C48.4741 219.189 48.5164 219.31 48.5107 219.433L47.8103 229.694C49.6881 229.867 55.9303 230.608 56.9453 232.841C57.0326 233.01 57.0781 233.198 57.0781 233.389C57.0781 233.58 57.0326 233.768 56.9453 233.937C55.5548 236.698 43.1413 239.367 43.0195 239.388C42.6417 239.463 42.2578 239.504 41.8726 239.51Z" fill="#231F20"/>
<path d="M68.5163 220.996C68.5163 220.996 67.9479 230.375 67.9784 233.927C68.0088 237.48 67.9784 240.819 72.15 240.017C74.4236 239.601 87.8927 237.449 86.7457 235.125C85.5988 232.8 76.5044 231.197 76.5044 231.197L77.2351 220.478" fill="white"/>
<path d="M71.0437 240.626C70.2857 240.662 69.5401 240.424 68.9426 239.956C67.5622 238.819 67.5419 236.515 67.5216 234.079V233.917C67.5216 230.385 68.0494 221.047 68.0494 220.955C68.0573 220.833 68.1127 220.719 68.2038 220.637C68.2949 220.556 68.4144 220.513 68.5366 220.519C68.598 220.52 68.6585 220.534 68.7143 220.559C68.7701 220.585 68.82 220.622 68.861 220.667C68.9019 220.713 68.933 220.767 68.9523 220.825C68.9716 220.883 68.9786 220.945 68.9731 221.006C68.9731 221.097 68.4148 230.415 68.4453 233.907V234.049C68.4453 236.261 68.4453 238.363 69.5313 239.225C69.9031 239.465 70.3226 239.621 70.7609 239.683C71.1991 239.744 71.6454 239.709 72.0688 239.581L72.7793 239.449C83.2643 237.611 85.9743 236.302 86.3194 235.521C86.3194 235.439 86.3194 235.399 86.3194 235.348C85.5582 233.815 79.8437 232.303 76.413 231.674C76.2999 231.656 76.1979 231.596 76.128 231.505C76.0581 231.414 76.0257 231.3 76.0375 231.186L76.7683 220.468C76.7786 220.347 76.8347 220.234 76.9253 220.153C77.0158 220.072 77.1339 220.029 77.2555 220.032C77.3784 220.042 77.4925 220.1 77.5739 220.192C77.6553 220.285 77.6976 220.406 77.6919 220.529L77.0017 230.872C78.9505 231.237 86.0555 232.719 87.1517 234.932C87.2352 235.088 87.2789 235.262 87.2789 235.439C87.2789 235.616 87.2352 235.791 87.1517 235.947C86.4108 237.419 82.0767 238.779 72.9417 240.372L72.2414 240.504C71.8462 240.578 71.4456 240.618 71.0437 240.626Z" fill="#231F20"/>
<path d="M38.1374 114.015C38.1374 114.015 35.2548 213.932 36.7773 222.478C36.7773 222.478 42.6338 229.086 50.226 225.787L59.838 144.749L64.913 225.716C64.913 225.716 69.7749 230.547 79.9655 222.518V110.483L38.1374 114.015Z" fill="#231F20"/>
<path d="M69.3283 227.685C67.5875 227.775 65.8779 227.197 64.5477 226.071C64.4575 225.986 64.403 225.87 64.3954 225.746L59.696 150.382L50.7538 225.848C50.7413 225.935 50.7068 226.019 50.6536 226.09C50.6004 226.161 50.5301 226.217 50.4493 226.254C42.6034 229.654 36.4728 222.884 36.4119 222.813C36.3495 222.74 36.3074 222.653 36.2901 222.559C34.7879 214.063 37.5385 118.075 37.6502 113.954C37.6569 113.83 37.7077 113.713 37.7933 113.624C37.879 113.534 37.9939 113.479 38.1171 113.467L79.9148 109.935C79.9848 109.929 80.0551 109.938 80.1215 109.961C80.1878 109.984 80.2487 110.02 80.3002 110.068C80.3517 110.116 80.3927 110.174 80.4207 110.238C80.4487 110.302 80.4631 110.372 80.4629 110.442V222.518C80.4633 222.596 80.4462 222.673 80.4128 222.743C80.3794 222.814 80.3306 222.876 80.27 222.924C75.53 226.649 71.8963 227.685 69.3283 227.685ZM65.4003 225.472C66.2224 226.142 70.7087 229.065 79.4479 222.275V111.031L38.655 114.482C38.452 121.77 35.8841 213.262 37.2746 222.244C38.0562 223.077 43.1718 228.111 49.7794 225.431L59.3509 144.688C59.3533 144.624 59.3689 144.561 59.3967 144.503C59.4245 144.446 59.4639 144.394 59.5125 144.352C59.561 144.31 59.6177 144.279 59.679 144.26C59.7402 144.241 59.8048 144.235 59.8685 144.242C59.9946 144.244 60.1154 144.293 60.2073 144.379C60.2993 144.465 60.3558 144.583 60.3659 144.709L65.4003 225.472Z" fill="#231F20"/>
<path d="M123.286 70.8978C123.286 70.8978 128.848 67.7513 129.254 67.4062C129.66 67.0611 131.599 61.915 131.913 61.5801C132.228 61.2451 133.009 60.6361 133.273 61.3466C133.537 62.0571 132.969 66.0055 132.969 66.0055C132.969 66.0055 139.81 60.6564 140.287 60.9305C140.764 61.2045 141.119 61.8237 140.043 63.3259C139.072 64.4882 137.924 65.4916 136.643 66.2998C136.643 66.2998 139.049 68.9997 138.673 69.9234C138.298 70.847 129.173 76.9675 129.173 76.9675" fill="white"/>
<path d="M129.213 77.4547C129.137 77.4566 129.062 77.439 128.994 77.4035C128.926 77.3679 128.869 77.3157 128.828 77.2517C128.793 77.2011 128.768 77.1441 128.756 77.084C128.743 77.024 128.742 76.962 128.754 76.9016C128.765 76.8413 128.788 76.7838 128.822 76.7324C128.855 76.681 128.899 76.6367 128.949 76.6021C133.273 73.7094 137.942 70.3598 138.287 69.761C138.399 69.426 137.455 67.9239 136.257 66.6247C136.212 66.5743 136.179 66.5144 136.159 66.4495C136.14 66.3845 136.135 66.3161 136.146 66.2491C136.155 66.1824 136.178 66.1186 136.215 66.0623C136.252 66.0061 136.301 65.9589 136.359 65.9243C137.589 65.1516 138.691 64.1929 139.627 63.0823C140.236 62.2196 140.277 61.8034 140.236 61.6309C140.221 61.5563 140.181 61.4886 140.125 61.438C137.714 62.9273 135.405 64.5753 133.212 66.3709C133.136 66.4233 133.046 66.4513 132.954 66.4513C132.861 66.4513 132.771 66.4233 132.695 66.3709C132.615 66.3242 132.55 66.2551 132.508 66.1722C132.467 66.0893 132.451 65.9961 132.461 65.904C132.734 64.4455 132.847 62.9615 132.796 61.4786C132.735 61.4786 132.461 61.6004 132.218 61.8643C131.974 62.1282 131.599 63.2244 131.203 64.1886C130.188 66.6855 129.792 67.4975 129.518 67.731C129.244 67.9644 124.443 70.776 123.428 71.2734C123.321 71.3242 123.199 71.3326 123.086 71.2969C122.973 71.2611 122.878 71.1839 122.82 71.0807C122.762 70.9776 122.745 70.8562 122.773 70.7413C122.801 70.6263 122.872 70.5262 122.971 70.4613C125.103 69.2636 128.584 67.2641 128.878 67.0103C129.409 65.978 129.884 64.9175 130.299 63.8334C130.612 62.9298 131.013 62.0594 131.497 61.235C131.68 61.0422 132.329 60.423 132.959 60.5347C133.114 60.571 133.258 60.6472 133.375 60.7558C133.493 60.8643 133.58 61.0014 133.629 61.1538C133.764 62.4055 133.72 63.6702 133.497 64.9093C139.739 60.0982 140.155 60.3519 140.449 60.5245C140.615 60.616 140.759 60.7423 140.871 60.8948C140.983 61.0472 141.061 61.2222 141.099 61.4076C141.128 61.8032 141.077 62.2008 140.948 62.5759C140.819 62.9511 140.615 63.2961 140.348 63.5898C139.482 64.6711 138.455 65.6126 137.303 66.3811C138.155 67.3961 139.444 69.1418 139.11 70.0655C138.775 70.9892 132.218 75.4754 129.426 77.343C129.366 77.3972 129.292 77.4355 129.213 77.4547Z" fill="#231F20"/>
<path d="M75.1544 65.2645C75.1544 65.2645 65.2988 62.0368 39.3452 67.0204C34.8386 67.8832 32.768 109.904 36.1683 135.178L81.6301 134.802C81.6301 134.802 89.131 68.7662 75.1544 65.2645Z" fill="#FF3636"/>
<path d="M37.6299 60.9406C37.6299 60.9406 27.7945 92.4056 27.1652 95.1968C26.5359 97.9881 19.8674 135.036 19.8674 135.036L30.2001 138.507C30.2001 138.507 45.1815 103.875 44.2274 94.1514C43.2733 84.4277 37.6299 60.9406 37.6299 60.9406Z" fill="#FF3636"/>
<path d="M74.3018 65.2848C82.2087 66.0359 98.6618 85.128 100.002 84.5698C101.341 84.0115 125.722 67.3148 125.722 67.3148L133.436 75.7596C133.436 75.7596 109.817 103.165 105.016 106.067C97.6265 110.483 66.2529 90.3857 66.2529 90.3857C66.2529 90.3857 66.395 64.5235 74.3018 65.2848Z" fill="#FF3636"/>
<path d="M25.4194 145.338C25.4194 145.338 22.2222 143.602 23.633 140.659L25.4194 145.338Z" fill="white"/>
<path d="M25.4194 145.805C25.341 145.804 25.2642 145.783 25.1961 145.744C23.9578 145.074 21.9481 143.105 23.1661 140.456C23.2199 140.344 23.3159 140.258 23.433 140.217C23.5501 140.176 23.6786 140.184 23.7903 140.238C23.902 140.291 23.9878 140.387 24.0287 140.504C24.0696 140.622 24.0624 140.75 24.0085 140.862C22.8007 143.379 25.4803 144.922 25.5919 144.922C25.6811 144.972 25.7511 145.051 25.7911 145.145C25.8312 145.239 25.8392 145.344 25.8138 145.444C25.7884 145.543 25.7311 145.631 25.6506 145.694C25.5702 145.758 25.4711 145.793 25.3686 145.795L25.4194 145.805Z" fill="#231F20"/>
<path d="M98.3066 106.666H98.2152C93.2519 105.651 83.5383 99.9065 70.8102 90.4264L70.2317 89.9899C70.1305 89.9217 70.06 89.8166 70.0353 89.6971C70.0107 89.5776 70.0338 89.4532 70.0997 89.3505C70.1643 89.2511 70.265 89.1807 70.3805 89.1542C70.4961 89.1276 70.6174 89.1471 70.7189 89.2084C70.9432 89.3564 71.1601 89.5156 71.3685 89.6854C83.9545 99.0945 93.5361 104.819 98.3675 105.773C98.4885 105.798 98.5948 105.869 98.6633 105.972C98.7318 106.075 98.7568 106.2 98.7329 106.321C98.7059 106.416 98.6506 106.499 98.5743 106.561C98.498 106.623 98.4045 106.66 98.3066 106.666Z" fill="#231F20"/>
<path d="M71.8151 45.8475C71.1546 45.8475 70.509 45.6517 69.9598 45.2847C69.4107 44.9178 68.9826 44.3963 68.7299 43.7861C68.4772 43.1759 68.411 42.5045 68.5399 41.8567C68.6687 41.2089 68.9868 40.6139 69.4538 40.1469C69.9208 39.6799 70.5158 39.3618 71.1636 39.233C71.8114 39.1041 72.4828 39.1703 73.093 39.423C73.7032 39.6758 74.2247 40.1038 74.5916 40.6529C74.9586 41.2021 75.1544 41.8477 75.1544 42.5082C75.1544 43.3938 74.8026 44.2432 74.1763 44.8695C73.5501 45.4957 72.7007 45.8475 71.8151 45.8475ZM71.8151 40.1838C71.3553 40.1838 70.906 40.3201 70.5237 40.5756C70.1415 40.831 69.8436 41.194 69.6676 41.6187C69.4917 42.0434 69.4457 42.5108 69.5354 42.9616C69.6251 43.4125 69.8464 43.8267 70.1715 44.1517C70.4966 44.4768 70.9107 44.6982 71.3616 44.7879C71.8125 44.8776 72.2798 44.8315 72.7045 44.6556C73.1293 44.4797 73.4923 44.1817 73.7477 43.7995C74.0031 43.4173 74.1394 42.9679 74.1394 42.5082C74.1394 42.2029 74.0793 41.9007 73.9625 41.6187C73.8457 41.3367 73.6745 41.0804 73.4586 40.8646C73.2428 40.6488 72.9866 40.4776 72.7045 40.3608C72.4225 40.2439 72.1203 40.1838 71.8151 40.1838Z" fill="#231F20"/>
<path d="M70.4549 44.7107C70.4549 44.7107 73.7537 50.1511 72.9924 51.2168C72.2312 52.2826 69.8459 51.4706 69.8459 51.4706" fill="white"/>
<path d="M71.5613 52.2318C70.9196 52.2159 70.2836 52.1064 69.6734 51.907C69.5388 51.8626 69.4274 51.7666 69.3636 51.64C69.2998 51.5134 69.289 51.3667 69.3334 51.2321C69.3778 51.0975 69.4739 50.986 69.6004 50.9223C69.727 50.8585 69.8738 50.8476 70.0084 50.892C70.6681 51.1255 72.1602 51.3995 72.5763 50.8311C72.8402 50.3439 71.6527 47.5628 70.0287 44.8832C69.9935 44.8274 69.9697 44.7651 69.9588 44.7001C69.948 44.635 69.9501 44.5684 69.9653 44.5041C69.9804 44.4399 70.0081 44.3793 70.0469 44.3259C70.0857 44.2725 70.1347 44.2273 70.1911 44.193C70.2477 44.1576 70.3107 44.1337 70.3766 44.1227C70.4425 44.1117 70.5099 44.1138 70.5749 44.1288C70.64 44.1439 70.7015 44.1717 70.7558 44.2106C70.8101 44.2495 70.8562 44.2987 70.8914 44.3554C71.9064 46.0809 74.2714 50.212 73.3985 51.4604C73.1777 51.7283 72.8951 51.9384 72.575 52.0728C72.255 52.2072 71.9071 52.2618 71.5613 52.2318Z" fill="#231F20"/>
<path d="M69.9779 37.6869C72.1398 39.585 71.3481 43.4115 71.2263 45.9084C71.0639 49.4271 70.8203 52.9424 70.4955 56.4543C70.2925 58.6771 64.5172 58.4843 63.5225 57.7941L64.7405 63.3664L52.124 61.5191L52.9056 54.2517C52.9056 54.2517 52.0936 44.1017 54.5296 39.6763C55.2368 38.3939 56.288 37.3345 57.5648 36.6172C58.8416 35.8999 60.2933 35.5532 61.7564 35.6163C61.7564 35.6163 67.8667 35.8193 69.9779 37.6869Z" fill="white"/>
<path d="M64.7405 63.874H64.6695L52.053 62.0267C51.9237 62.0065 51.8071 61.9372 51.7277 61.8332C51.6482 61.7292 51.6121 61.5985 51.6267 61.4684L52.3981 54.201C52.3981 53.8762 51.6064 43.9698 54.083 39.4328C54.8303 38.0587 55.9514 36.9244 57.3165 36.1609C58.6817 35.3975 60.2351 35.0363 61.797 35.119C62.0305 35.119 68.1002 35.3423 70.3129 37.3013C72.3429 39.0572 72.0384 42.1225 71.8354 44.589C71.8354 45.066 71.7542 45.5228 71.7339 45.9389C71.5715 49.4508 71.3279 53.0439 71.0031 56.4949C70.9571 56.8821 70.8005 57.2479 70.5521 57.5485C70.3037 57.8491 69.974 58.0718 69.6024 58.19C67.8762 58.815 66.0103 58.9485 64.2127 58.5757L65.2277 63.265C65.2443 63.3437 65.2419 63.4253 65.2207 63.503C65.1995 63.5806 65.1602 63.6521 65.1059 63.7116C65.0596 63.7624 65.0032 63.8032 64.9403 63.8311C64.8774 63.8591 64.8094 63.8737 64.7405 63.874ZM52.6823 61.0929L64.0909 62.7575L63.0759 57.9058C63.0532 57.8065 63.0614 57.7027 63.0995 57.6084C63.1376 57.514 63.2038 57.4336 63.2891 57.378C63.374 57.319 63.475 57.2874 63.5784 57.2874C63.6817 57.2874 63.7827 57.319 63.8676 57.378C65.6196 57.9179 67.4989 57.8787 69.2268 57.2663C69.7343 57.0329 70.0084 56.7385 70.0388 56.3934C70.3636 52.912 70.6072 49.3798 70.7696 45.878C70.7696 45.4517 70.8305 44.9848 70.8711 44.4976C71.064 42.2545 71.2974 39.4226 69.6937 38.0524C67.7449 36.337 61.8478 36.1239 61.797 36.1239C60.4266 36.0535 59.0641 36.3715 57.8665 37.0413C56.6688 37.7111 55.6845 38.7054 55.027 39.9098C52.6925 44.183 53.4537 54.1198 53.4639 54.201L52.6823 61.0929Z" fill="#231F20"/>
<path d="M49.6475 63.2345L50.835 59.3877L66.3239 60.8797L67.207 64.4119C64.3744 65.5231 61.3312 65.9937 58.2953 65.7902C55.2595 65.5866 52.3063 64.7139 49.6475 63.2345Z" fill="white"/>
<path d="M59.838 66.3506C56.1965 66.3333 52.6156 65.4163 49.414 63.6811C49.3101 63.6252 49.229 63.5348 49.1845 63.4255C49.14 63.3162 49.1351 63.1949 49.1704 63.0823L50.3173 59.2355C50.3536 59.1241 50.4266 59.0284 50.5243 58.9639C50.622 58.8993 50.7387 58.8698 50.8553 58.8802L66.3746 60.3519C66.4774 60.3616 66.5745 60.4029 66.6527 60.4701C66.7309 60.5374 66.7863 60.6274 66.8111 60.7275L67.7043 64.2597C67.732 64.3729 67.7199 64.4923 67.67 64.5976C67.6201 64.703 67.5354 64.788 67.4302 64.8382C65.0319 65.8639 62.4463 66.379 59.838 66.3506ZM50.3173 62.9808C52.8166 64.2839 55.5578 65.0574 58.3696 65.253C61.1813 65.4486 64.0032 65.0621 66.6588 64.1176L65.9686 61.3568L51.2511 59.9257L50.3173 62.9808Z" fill="#231F20"/>
<path d="M57.2295 55.1652C57.2295 61.1436 63.2383 73.2322 58.0821 77.9824C53.2406 82.4484 44.8871 83.6157 38.6347 82.9255C29.4997 81.9105 24.6988 75.587 28.4847 66.6855C30.3219 62.3413 33.5597 58.7583 36.2495 54.881C38.6167 51.467 40.6044 47.8049 42.1771 43.9596C43.5169 40.7015 44.5116 36.8546 46.3183 33.8096C50.3174 27.07 57.3818 24.431 64.8116 26.6031C67.9987 27.5369 74.1293 31.3736 72.6271 35.525C72.2617 36.54 71.0132 38.0726 70.0185 37.6463C69.7343 39.6154 68.4656 40.5594 66.9228 41.818C65.3031 43.0124 63.619 44.117 61.8782 45.1269C60.6934 45.8319 59.6587 46.7631 58.8332 47.8674C57.9301 49.3736 57.4075 51.0772 57.3107 52.8307C57.2384 53.6067 57.2113 54.3861 57.2295 55.1652Z" fill="white"/>
<path d="M41.9944 83.6157C40.8552 83.6144 39.7168 83.5534 38.584 83.433C33.6511 82.9052 29.9057 80.8346 28.0077 77.6272C26.1096 74.4198 26.201 70.7151 28.0077 66.4622C29.4865 63.3209 31.3442 60.3724 33.5394 57.6825C34.3108 56.6675 35.0822 55.6525 35.8232 54.5664C38.1665 51.1786 40.1368 47.5475 41.7 43.7364C42.1365 42.6605 42.5323 41.5541 42.9485 40.3767C43.7057 38.0193 44.6845 35.7389 45.8717 33.5661C47.6942 30.3066 50.5939 27.7826 54.0736 26.4271C57.5534 25.0715 61.3963 24.9687 64.9435 26.1363C67.3186 26.8265 71.3279 29.1102 72.7895 31.9928C73.1006 32.5569 73.2887 33.1806 73.3411 33.8227C73.3936 34.4648 73.3094 35.1107 73.094 35.7179C72.7253 36.7282 72.0045 37.5715 71.064 38.093C70.8578 38.1807 70.638 38.2322 70.4144 38.2452C69.9881 39.991 68.8005 40.9553 67.4404 42.0616L67.2273 42.2342C66.1706 43.0627 65.0545 43.8124 63.8879 44.4773C63.3195 44.8224 62.7511 45.1675 62.1929 45.4923C61.057 46.1878 60.0675 47.098 59.2798 48.1719C58.4302 49.6109 57.9393 51.2332 57.8487 52.9018C57.7644 53.6601 57.7271 54.4228 57.737 55.1856C57.9159 57.6201 58.3514 60.0288 59.0362 62.3718C60.4877 68.2689 62.0812 74.9578 58.4272 78.3682C54.1744 82.2759 47.516 83.6157 41.9944 83.6157ZM59.7975 26.4103C57.1293 26.4125 54.5101 27.1266 52.2102 28.4791C49.9103 29.8316 48.0129 31.7734 46.7141 34.104C45.5636 36.2241 44.6122 38.4463 43.8721 40.7421C43.4763 41.8789 43.05 43.0969 42.6034 44.1119C41.0205 47.9942 39.0157 51.6907 36.625 55.1348C35.8841 56.1498 35.1025 57.246 34.3108 58.2813C32.1729 60.9093 30.3599 63.7857 28.911 66.8479C27.2667 70.7658 27.2566 74.3082 28.911 77.0791C30.6365 80.0125 34.118 81.9004 38.7159 82.3977C44.4304 83.0169 52.8447 82.1237 57.7675 77.5765C61.0256 74.5315 59.4625 68.1877 58.0821 62.5646C57.3715 60.1434 56.9257 57.6522 56.7525 55.1348C56.7408 54.338 56.7815 53.5412 56.8743 52.7496C56.9649 50.9256 57.5016 49.1516 58.4374 47.5832C59.2874 46.4248 60.3607 45.4481 61.594 44.7108C62.1624 44.3352 62.741 43.98 63.3195 43.6349C64.4486 42.9881 65.5306 42.2622 66.5574 41.4628L66.7705 41.3004C68.2017 40.1331 69.2268 39.2704 69.4806 37.6058C69.4929 37.5297 69.5223 37.4575 69.5667 37.3945C69.6111 37.3315 69.6692 37.2794 69.7367 37.2423C69.8042 37.2051 69.8793 37.1838 69.9563 37.1799C70.0332 37.1761 70.11 37.1898 70.1809 37.2201C70.324 37.2787 70.4844 37.2787 70.6275 37.2201C71.3124 36.8129 71.8358 36.182 72.1094 35.4337C72.2778 34.9565 72.3422 34.4488 72.2984 33.9447C72.2547 33.4405 72.1037 32.9516 71.8557 32.5105C70.5463 29.9222 66.7807 27.7907 64.6289 27.1716C63.0627 26.6897 61.4359 26.4334 59.7975 26.4103Z" fill="#231F20"/>
<path d="M70.5158 53.8255C70.5158 53.8255 67.7246 55.3987 66.3746 52.5161L70.5158 53.8255Z" fill="white"/>
<path d="M68.831 54.7592C68.5108 54.7618 68.1922 54.7138 67.887 54.6171C67.4441 54.4622 67.0394 54.2146 66.6999 53.8907C66.3603 53.5669 66.0937 53.1744 65.9179 52.7394C65.8893 52.6787 65.8728 52.613 65.8696 52.5461C65.8663 52.4791 65.8763 52.4121 65.8989 52.3489C65.9215 52.2858 65.9563 52.2277 66.0014 52.178C66.0465 52.1283 66.1009 52.088 66.1615 52.0593C66.2222 52.0307 66.2879 52.0142 66.3549 52.011C66.4219 52.0077 66.4888 52.0177 66.552 52.0403C66.6151 52.0629 66.6732 52.0978 66.7229 52.1428C66.7726 52.1879 66.8129 52.2423 66.8416 52.3029C66.9576 52.6094 67.1369 52.888 67.3678 53.1205C67.5986 53.3531 67.8758 53.5345 68.1814 53.6529C68.8853 53.8165 69.6246 53.7191 70.2621 53.3788C70.3207 53.3467 70.3851 53.3264 70.4516 53.3192C70.518 53.312 70.5853 53.318 70.6494 53.3369C70.7135 53.3558 70.7733 53.3871 70.8253 53.4292C70.8773 53.4712 70.9205 53.5231 70.9523 53.5818C70.9861 53.6387 71.0079 53.7019 71.0164 53.7675C71.0249 53.833 71.02 53.8997 71.002 53.9633C70.984 54.0269 70.9531 54.0862 70.9115 54.1375C70.8698 54.1889 70.818 54.2312 70.7595 54.2619C70.1656 54.5794 69.5043 54.75 68.831 54.7592Z" fill="#231F20"/>
<path d="M55.9506 46.7916C55.9072 46.8012 55.8621 46.8012 55.8187 46.7916C55.6899 46.7559 55.5803 46.6709 55.5138 46.555C55.4473 46.4391 55.4292 46.3016 55.4634 46.1724C56.0115 44.2744 56.4175 44.2439 56.6611 44.2236C56.9047 44.2033 68.5366 42.7722 74.586 42.0312C74.7192 42.0139 74.8539 42.0501 74.9604 42.132C75.067 42.2138 75.1367 42.3345 75.1544 42.4677C75.1688 42.6019 75.1302 42.7365 75.0468 42.8427C74.9633 42.9489 74.8417 43.0183 74.7078 43.0361C73.0026 43.2492 58.6708 45.066 56.9047 45.2183C56.7099 45.6106 56.5568 46.0222 56.448 46.4465C56.4118 46.5489 56.3442 46.6373 56.255 46.6993C56.1657 46.7612 56.0592 46.7935 55.9506 46.7916Z" fill="#231F20"/>
<path d="M63.624 46.7103C63.5576 45.825 63.2486 44.9751 62.7308 44.254C62.4078 43.649 61.9974 43.095 61.5128 42.6097C61.2688 42.3701 60.9748 42.1877 60.6519 42.0753C60.329 41.963 59.9852 41.9237 59.6452 41.9601C59.349 42.0198 59.0686 42.141 58.8221 42.3159C58.5755 42.4907 58.3684 42.7152 58.2141 42.9751C57.9238 43.5075 57.7508 44.0958 57.7066 44.7006C57.5986 46.0236 57.8399 47.3518 58.4064 48.5524C58.9728 49.7529 59.8445 50.7837 60.9343 51.5417L60.7516 51.3184" fill="white"/>
<path d="M60.9343 52.0694C60.8326 52.0676 60.7338 52.0358 60.6501 51.9781C59.4903 51.167 58.5626 50.0669 57.9591 48.7868C57.3555 47.5067 57.097 46.0911 57.2092 44.6803C57.2508 43.995 57.4487 43.3284 57.7878 42.7315C57.973 42.4049 58.2268 42.1225 58.5317 41.9034C58.8366 41.6844 59.1853 41.5341 59.5539 41.4627C59.9712 41.4101 60.395 41.4521 60.7939 41.5856C61.1927 41.7191 61.5564 41.9408 61.8579 42.2341C62.3809 42.7534 62.8224 43.3488 63.1673 44.0002C63.7532 44.7942 64.1049 45.7366 64.1823 46.7204C64.1723 46.8525 64.114 46.9763 64.0185 47.068C63.923 47.1598 63.797 47.2131 63.6646 47.2178C63.598 47.2164 63.5322 47.202 63.4712 47.1753C63.4101 47.1485 63.3549 47.11 63.3087 47.062C63.2625 47.0139 63.2262 46.9572 63.202 46.8951C63.1777 46.833 63.1659 46.7668 63.1673 46.7001C63.0977 45.9112 62.8134 45.1565 62.3451 44.5179C62.0494 43.9554 61.6733 43.4391 61.2286 42.9852C61.0391 42.7977 60.8112 42.6534 60.5607 42.5623C60.3101 42.4712 60.0428 42.4354 59.7772 42.4574C59.5518 42.5085 59.3396 42.6062 59.1543 42.7444C58.969 42.8825 58.8146 43.0579 58.7013 43.2593C58.4445 43.7244 58.2954 44.2412 58.2648 44.7716C58.171 45.9214 58.3585 47.0767 58.8112 48.1378C59.264 49.1988 59.9682 50.1337 60.8632 50.8616C60.9262 50.8669 60.9875 50.8849 61.0433 50.9145C61.0991 50.9442 61.1484 50.9849 61.188 51.0342L61.3707 51.2473C61.4521 51.3399 61.4969 51.459 61.4969 51.5823C61.4969 51.7055 61.4521 51.8246 61.3707 51.9172C61.3143 51.974 61.2456 52.0173 61.17 52.0436C61.0944 52.07 61.0138 52.0788 60.9343 52.0694Z" fill="#231F20"/>
<path d="M69.552 43.1943C69.8266 43.1899 70.0404 42.623 70.0295 41.928C70.0186 41.233 69.7871 40.6731 69.5124 40.6774C69.2378 40.6817 69.024 41.2486 69.0349 41.9436C69.0458 42.6386 69.2773 43.1986 69.552 43.1943Z" fill="#231F20"/>
<path d="M35.4476 129.118C35.3309 129.121 35.2177 129.078 35.1323 128.998C35.0469 128.918 34.9961 128.808 34.9909 128.692C34.1078 116.826 35.8739 85.0468 35.8942 84.7322C35.8968 84.6713 35.9115 84.6115 35.9376 84.5564C35.9636 84.5013 36.0004 84.4519 36.0458 84.4112C36.0912 84.3706 36.1443 84.3394 36.2019 84.3195C36.2596 84.2997 36.3206 84.2916 36.3814 84.2957C36.5044 84.3061 36.6185 84.3637 36.6999 84.4564C36.7813 84.5492 36.8235 84.6698 36.8179 84.7931C36.8179 85.1077 35.0315 116.816 35.9145 128.621C35.9229 128.743 35.883 128.864 35.8032 128.957C35.7235 129.05 35.6103 129.108 35.4882 129.118H35.4476Z" fill="#231F20"/>
<path d="M39.7208 130.123C39.61 130.107 39.5089 130.051 39.4358 129.966C39.3627 129.881 39.3225 129.773 39.3225 129.661C39.3225 129.549 39.3627 129.441 39.4358 129.356C39.5089 129.271 39.61 129.216 39.7208 129.199L80.3208 127.169C80.3824 127.165 80.4442 127.174 80.5025 127.194C80.5608 127.215 80.6144 127.247 80.6599 127.288C80.7055 127.33 80.7421 127.381 80.7675 127.437C80.793 127.493 80.8067 127.554 80.8079 127.616C80.8108 127.739 80.7659 127.859 80.6827 127.949C80.5995 128.04 80.4843 128.095 80.3614 128.103L39.7614 130.133L39.7208 130.123Z" fill="#231F20"/>
</svg>
